<?xml version="1.0" encoding="UTF-8"?>
<svg xmlns="http://www.w3.org/2000/svg" xmlns:xlink="http://www.w3.org/1999/xlink" width="200px" height="203px" viewBox="0 0 200 202" version="1.1">
<g id="surface1">
<path style=" stroke:none;fill-rule:nonzero;fill:rgb(77.254902%,14.901961%,86.666667%);fill-opacity:1;" d="M 99.308594 54.210938 C 98.140625 34.609375 113.214844 17.773438 132.972656 16.601562 C 142.460938 16.039062 151.785156 19.238281 158.890625 25.496094 C 165.996094 31.757812 170.300781 40.558594 170.859375 49.972656 C 172.027344 69.574219 156.953125 86.410156 137.195312 87.582031 C 117.433594 88.753906 100.472656 73.8125 99.308594 54.210938 Z M 99.308594 54.210938 "/>
<path style=" stroke:none;fill-rule:nonzero;fill:rgb(77.254902%,14.901961%,86.666667%);fill-opacity:1;" d="M 26.175781 55.066406 C 24.6875 30.015625 45.945312 8.378906 73.652344 6.734375 C 101.363281 5.09375 125.035156 24.066406 126.527344 49.117188 C 128.015625 74.167969 106.757812 95.808594 79.050781 97.453125 C 51.339844 99.09375 27.667969 80.117188 26.175781 55.066406 Z M 26.175781 55.066406 "/>
<path style=" stroke:none;fill-rule:nonzero;fill:rgb(77.254902%,14.901961%,86.666667%);fill-opacity:1;" d="M 5.609375 105.457031 C 4.445312 85.855469 19.515625 69.015625 39.273438 67.84375 C 48.761719 67.28125 58.085938 70.480469 65.191406 76.738281 C 72.292969 82.996094 76.601562 91.800781 77.160156 101.210938 C 78.324219 120.8125 63.253906 137.652344 43.496094 138.824219 C 23.738281 139.996094 6.777344 125.058594 5.613281 105.457031 Z M 5.609375 105.457031 "/>
<path style=" stroke:none;fill-rule:nonzero;fill:rgb(77.254902%,14.901961%,86.666667%);fill-opacity:1;" d="M 93.050781 149.613281 C 91.746094 127.648438 109.507812 108.726562 132.71875 107.351562 C 143.867188 106.691406 154.808594 110.246094 163.132812 117.238281 C 171.460938 124.226562 176.488281 134.082031 177.117188 144.628906 C 178.421875 166.589844 160.664062 185.511719 137.449219 186.886719 C 114.234375 188.265625 94.359375 171.574219 93.054688 149.613281 Z M 93.050781 149.613281 "/>
<path style=" stroke:none;fill-rule:nonzero;fill:rgb(77.254902%,14.901961%,86.666667%);fill-opacity:1;" d="M 121.179688 96.984375 C 120.015625 77.386719 135.085938 60.546875 154.847656 59.371094 C 164.332031 58.808594 173.65625 62.011719 180.761719 68.269531 C 187.863281 74.527344 192.171875 83.328125 192.730469 92.742188 C 193.894531 112.34375 178.824219 129.179688 159.066406 130.355469 C 139.308594 131.527344 122.347656 116.585938 121.183594 96.988281 Z M 121.179688 96.984375 "/>
<path style=" stroke:none;fill-rule:nonzero;fill:rgb(77.254902%,14.901961%,86.666667%);fill-opacity:1;" d="M 47.382812 158.046875 C 46.046875 135.566406 63.683594 116.230469 86.777344 114.863281 C 97.867188 114.203125 108.757812 117.863281 117.050781 125.03125 C 125.347656 132.199219 130.367188 142.292969 131.007812 153.089844 C 132.347656 175.570312 114.710938 194.902344 91.617188 196.273438 C 68.523438 197.644531 48.71875 180.527344 47.382812 158.046875 Z M 47.382812 158.046875 "/>
<path style=" stroke:none;fill-rule:nonzero;fill:rgb(77.254902%,14.901961%,86.666667%);fill-opacity:1;" d="M 65.527344 103.480469 C 64.039062 78.429688 85.292969 56.789062 113.003906 55.144531 C 140.714844 53.503906 164.386719 72.476562 165.875 97.527344 C 167.367188 122.578125 146.109375 144.21875 118.398438 145.863281 C 90.6875 147.503906 67.019531 128.53125 65.527344 103.480469 Z M 65.527344 103.480469 "/>
<path style=" stroke:none;fill-rule:nonzero;fill:rgb(0%,0%,0%);fill-opacity:1;" d="M 102.4375 167.585938 C 100.867188 168.980469 101.570312 172.226562 104.042969 173.164062 C 106.519531 174.097656 114.332031 173.644531 117.285156 173.199219 C 120.234375 172.757812 121.261719 171.589844 121.746094 170.503906 C 122.230469 169.414062 121.570312 167.632812 120.1875 166.679688 C 118.808594 165.730469 116.410156 164.644531 113.453125 164.796875 C 110.492188 164.949219 104.003906 166.191406 102.4375 167.585938 Z M 102.4375 167.585938 "/>
<path style=" stroke:none;fill-rule:nonzero;fill:rgb(100%,100%,100%);fill-opacity:1;" d="M 103.46875 166.238281 C 102.070312 167.125 102.003906 169.160156 103.65625 169.730469 C 105.304688 170.300781 111.128906 169.953125 113.378906 169.652344 C 115.625 169.351562 116.589844 168.609375 117.136719 167.921875 C 117.6875 167.234375 117.523438 166.117188 116.675781 165.53125 C 115.828125 164.945312 114.261719 164.28125 112.0625 164.398438 C 109.859375 164.515625 104.871094 165.347656 103.46875 166.238281 Z M 103.46875 166.238281 "/>
<path style=" stroke:none;fill-rule:nonzero;fill:rgb(0%,0%,0%);fill-opacity:1;" d="M 92.230469 164.832031 C 94.015625 165.894531 93.9375 169.210938 91.703125 170.609375 C 89.472656 172.003906 81.789062 173.074219 78.839844 173.210938 C 75.886719 173.347656 74.667969 172.402344 73.996094 171.433594 C 73.324219 170.460938 73.632812 168.585938 74.800781 167.386719 C 75.96875 166.1875 78.09375 164.660156 81 164.234375 C 83.90625 163.808594 90.445312 163.769531 92.230469 164.832031 Z M 92.230469 164.832031 "/>
<path style=" stroke:none;fill-rule:nonzero;fill:rgb(100%,100%,100%);fill-opacity:1;" d="M 90.972656 163.710938 C 92.5 164.3125 92.941406 166.292969 91.441406 167.171875 C 89.941406 168.046875 84.214844 168.835938 81.976562 168.976562 C 79.734375 169.117188 78.660156 168.578125 77.996094 168.011719 C 77.335938 167.445312 77.289062 166.320312 78.003906 165.578125 C 78.714844 164.839844 80.117188 163.886719 82.277344 163.578125 C 84.4375 163.265625 89.445312 163.113281 90.972656 163.710938 Z M 90.972656 163.710938 "/>
<path style=" stroke:none;fill-rule:nonzero;fill:rgb(95.294118%,88.235294%,62.352941%);fill-opacity:1;" d="M 145.941406 85.578125 C 146.230469 84.621094 148.453125 82.546875 149.796875 81.308594 C 151.144531 80.074219 153.027344 78.523438 154.015625 78.160156 C 155.003906 77.796875 155.921875 78.320312 155.722656 79.125 C 155.523438 79.929688 154.097656 81.667969 152.820312 82.988281 C 151.546875 84.308594 149.210938 86.617188 148.0625 87.050781 C 146.917969 87.480469 145.652344 86.535156 145.941406 85.578125 Z M 145.941406 85.578125 "/>
<path style=" stroke:none;fill-rule:nonzero;fill:rgb(95.294118%,88.235294%,62.352941%);fill-opacity:1;" d="M 147.984375 85.890625 C 148.480469 84.949219 151.015625 83.277344 152.542969 82.289062 C 154.074219 81.296875 156.171875 80.101562 157.167969 79.949219 C 158.160156 79.792969 158.878906 80.558594 158.503906 81.363281 C 158.128906 82.164062 156.40625 83.667969 154.917969 84.761719 C 153.433594 85.859375 150.738281 87.75 149.582031 87.9375 C 148.425781 88.125 147.492188 86.832031 147.984375 85.890625 Z M 147.984375 85.890625 "/>
<path style=" stroke:none;fill-rule:nonzero;fill:rgb(95.294118%,88.235294%,62.352941%);fill-opacity:1;" d="M 148.675781 87.148438 C 149.347656 86.324219 152.0625 85.117188 153.695312 84.40625 C 155.328125 83.699219 157.53125 82.878906 158.480469 82.882812 C 159.425781 82.886719 159.902344 83.730469 159.371094 84.4375 C 158.839844 85.144531 156.910156 86.316406 155.289062 87.132812 C 153.671875 87.953125 150.757812 89.34375 149.65625 89.34375 C 148.554688 89.347656 148.003906 87.96875 148.675781 87.148438 Z M 148.675781 87.148438 "/>
<path style=" stroke:none;fill-rule:nonzero;fill:rgb(95.294118%,88.235294%,62.352941%);fill-opacity:1;" d="M 148.222656 87.40625 C 149.113281 86.796875 151.84375 86.527344 153.480469 86.382812 C 155.121094 86.238281 157.273438 86.1875 158.050781 86.535156 C 158.832031 86.878906 158.886719 87.921875 158.160156 88.464844 C 157.433594 89.007812 155.363281 89.519531 153.695312 89.78125 C 152.023438 90.042969 149.054688 90.429688 148.140625 90.035156 C 147.230469 89.640625 147.332031 88.011719 148.222656 87.40625 Z M 148.222656 87.40625 "/>
<path style=" stroke:none;fill-rule:nonzero;fill:rgb(95.294118%,88.235294%,62.352941%);fill-opacity:1;" d="M 147.816406 83.875 L 150.40625 89.222656 L 142.265625 94.191406 L 139.675781 88.84375 Z M 147.816406 83.875 "/>
<path style=" stroke:none;fill-rule:nonzero;fill:rgb(95.294118%,88.235294%,62.352941%);fill-opacity:1;" d="M 147.085938 88.296875 C 146.476562 87.703125 146.503906 85.175781 146.539062 83.652344 C 146.578125 82.128906 146.789062 80.066406 147.304688 79.152344 C 147.816406 78.242188 149.0625 77.726562 149.613281 78.191406 C 150.164062 78.65625 150.511719 80.433594 150.613281 81.933594 C 150.710938 83.4375 150.792969 86.144531 150.203125 87.207031 C 149.617188 88.265625 147.695312 88.890625 147.085938 88.296875 Z M 147.085938 88.296875 "/>
<path style=" stroke:none;fill-rule:nonzero;fill:rgb(95.294118%,88.235294%,62.352941%);fill-opacity:1;" d="M 93.632812 96.316406 L 107.152344 96.316406 L 107.152344 104.859375 L 93.632812 104.859375 Z M 93.632812 96.316406 "/>
<path style=" stroke:none;fill-rule:nonzero;fill:rgb(95.294118%,88.235294%,62.352941%);fill-opacity:1;" d="M 64.789062 66.160156 C 64.789062 48.890625 79.714844 34.894531 98.125 34.894531 C 106.96875 34.894531 115.445312 38.1875 121.699219 44.050781 C 127.953125 49.914062 131.464844 57.867188 131.464844 66.160156 C 131.464844 83.425781 116.539062 97.425781 98.125 97.425781 C 79.714844 97.425781 64.789062 83.425781 64.789062 66.160156 Z M 64.789062 66.160156 "/>
<path style=" stroke:none;fill-rule:nonzero;fill:rgb(4.313725%,32.54902%,58.039216%);fill-opacity:1;" d="M 111.796875 140.742188 L 111.796875 168.691406 L 101.3125 168.679688 L 101.3125 140.726562 Z M 111.796875 140.742188 "/>
<path style=" stroke:none;fill-rule:nonzero;fill:rgb(4.313725%,32.54902%,58.039216%);fill-opacity:1;" d="M 97.253906 139.742188 L 94.421875 167.542969 L 84.3125 166.507812 L 87.144531 138.707031 Z M 97.253906 139.742188 "/>
<path style=" stroke:none;fill-rule:nonzero;fill:rgb(0%,0%,0%);fill-opacity:1;" d="M 68.238281 58.308594 L 69.386719 70.929688 L 75.710938 52.570312 L 77.433594 61.75 L 88.355469 49.703125 L 87.207031 58.308594 L 98.703125 47.410156 L 120.546875 56.011719 L 117.097656 48.554688 L 130.320312 66.914062 L 128.59375 52.570312 L 111.347656 39.378906 L 92.953125 39.378906 L 75.710938 46.835938 Z M 68.238281 58.308594 "/>
<path style=" stroke:none;fill-rule:nonzero;fill:rgb(100%,96.078431%,31.764706%);fill-opacity:1;" d="M 101.3125 41.867188 L 101.101562 35.890625 L 99.816406 34.183594 L 96.179688 32.6875 L 89.757812 33.328125 L 79.277344 37.597656 L 74.140625 41.441406 L 69.21875 47.207031 L 64.296875 57.667969 L 63.65625 65.785156 L 65.367188 83.507812 L 69.859375 106.140625 L 71.144531 98.878906 L 73.496094 103.578125 L 73.496094 96.105469 L 75.851562 97.8125 L 69.433594 71.976562 L 69.433594 57.457031 L 84.839844 43.789062 Z M 101.3125 41.867188 "/>
<path style="fill-rule:nonzero;fill:rgb(10.196078%,10.196078%,10.196078%);fill-opacity:1;stroke-width:12.747;stroke-linecap:butt;stroke-linejoin:miter;stroke:rgb(0%,0%,0%);stroke-opacity:1;stroke-miterlimit:8;" d="M -166.542883 -188.275647 L -167.328312 -210.575326 L -172.113615 -216.944581 L -185.655002 -222.526788 L -209.566969 -220.136496 L -248.591182 -204.206072 L -267.717846 -189.864317 L -286.044535 -168.351686 L -304.371225 -129.31996 L -306.756604 -99.033207 L -300.385897 -32.906642 L -283.659157 51.540639 L -278.873855 24.4458 L -270.117769 41.979469 L -270.117769 14.097583 L -261.347139 20.466838 L -285.244561 -75.931905 L -285.244561 -130.107008 L -227.879113 -181.10477 Z M -166.542883 -188.275647 " transform="matrix(0.268563,0,0,0.268011,146.039795,92.327159)"/>
<path style=" stroke:none;fill-rule:nonzero;fill:rgb(100%,96.078431%,31.764706%);fill-opacity:1;" d="M 99.367188 41.363281 L 99.550781 35.273438 L 100.644531 33.535156 L 103.746094 32.011719 L 109.214844 32.664062 L 118.152344 37.011719 L 122.527344 40.925781 L 126.722656 46.800781 L 130.917969 57.453125 L 131.464844 65.71875 L 130.003906 83.765625 L 126.175781 106.816406 L 125.082031 99.421875 L 123.074219 104.207031 L 123.074219 96.59375 L 121.070312 98.335938 L 126.539062 72.023438 L 126.539062 57.238281 L 113.410156 43.320312 L 99.371094 41.363281 Z M 99.367188 41.363281 "/>
<path style="fill-rule:nonzero;fill:rgb(10.196078%,10.196078%,10.196078%);fill-opacity:1;stroke-width:12.747;stroke-linecap:butt;stroke-linejoin:miter;stroke:rgb(0%,0%,0%);stroke-opacity:1;stroke-miterlimit:8;" d="M -173.786289 -190.155816 L -173.102674 -212.878169 L -169.030076 -219.364023 L -157.481353 -225.048255 L -137.118364 -222.614238 L -103.839423 -206.392315 L -87.549032 -191.788211 L -71.927711 -169.867481 L -56.30639 -130.121583 L -54.270091 -99.280981 L -59.709918 -31.944695 L -73.96401 54.062106 L -78.036608 26.471719 L -85.512733 44.326037 L -85.512733 15.919452 L -92.974314 22.419882 L -72.611326 -75.757006 L -72.611326 -130.923205 L -121.497043 -182.853765 L -173.771744 -190.155816 Z M -173.786289 -190.155816 " transform="matrix(0.268563,0,0,0.268011,146.039795,92.327159)"/>
<path style=" stroke:none;fill-rule:nonzero;fill:rgb(0%,0%,0%);fill-opacity:1;" d="M 105.164062 68.558594 C 105.164062 66.203125 107.128906 64.289062 109.550781 64.289062 C 110.714844 64.289062 111.832031 64.738281 112.652344 65.539062 C 113.476562 66.339844 113.9375 67.425781 113.9375 68.558594 C 113.9375 70.917969 111.976562 72.832031 109.550781 72.832031 C 107.128906 72.832031 105.164062 70.917969 105.164062 68.558594 Z M 105.164062 68.558594 "/>
<path style=" stroke:none;fill-rule:nonzero;fill:rgb(100%,100%,100%);fill-opacity:1;" d="M 109.230469 68.558594 C 109.230469 67.671875 109.949219 66.953125 110.835938 66.953125 C 111.261719 66.953125 111.667969 67.121094 111.96875 67.421875 C 112.269531 67.726562 112.4375 68.132812 112.4375 68.558594 C 112.4375 69.449219 111.71875 70.167969 110.835938 70.167969 C 109.949219 70.167969 109.230469 69.449219 109.230469 68.558594 Z M 109.230469 68.558594 "/>
<path style=" stroke:none;fill-rule:nonzero;fill:rgb(0%,0%,0%);fill-opacity:1;" d="M 87.191406 68.558594 C 87.191406 66.203125 89.15625 64.289062 91.578125 64.289062 C 92.742188 64.289062 93.859375 64.738281 94.683594 65.539062 C 95.503906 66.339844 95.964844 67.425781 95.964844 68.558594 C 95.964844 70.917969 94.003906 72.832031 91.578125 72.832031 C 89.15625 72.832031 87.191406 70.917969 87.191406 68.558594 Z M 87.191406 68.558594 "/>
<path style=" stroke:none;fill-rule:nonzero;fill:rgb(100%,100%,100%);fill-opacity:1;" d="M 91.253906 68.558594 C 91.253906 67.671875 91.972656 66.953125 92.859375 66.953125 C 93.285156 66.953125 93.691406 67.121094 93.992188 67.421875 C 94.292969 67.726562 94.464844 68.132812 94.464844 68.558594 C 94.464844 69.449219 93.746094 70.167969 92.859375 70.167969 C 91.972656 70.167969 91.253906 69.449219 91.253906 68.558594 Z M 91.253906 68.558594 "/>
<path style=" stroke:none;fill-rule:nonzero;fill:rgb(86.666667%,70.196078%,45.490196%);fill-opacity:1;" d="M 96.605469 74.75 L 105.164062 74.914062 L 104.519531 76.703125 L 102.597656 78.167969 L 99.8125 78.167969 L 97.675781 77.191406 Z M 96.605469 74.75 "/>
<path style=" stroke:none;fill-rule:nonzero;fill:rgb(100%,96.078431%,31.764706%);fill-opacity:1;" d="M 85.136719 64.828125 L 84.046875 62.574219 L 88.707031 59.742188 L 96.304688 58.328125 L 89.328125 61.609375 Z M 85.136719 64.828125 "/>
<path style=" stroke:none;fill-rule:nonzero;fill:rgb(100%,96.078431%,31.764706%);fill-opacity:1;" d="M 116.933594 64.289062 L 117.789062 61.941406 L 112.867188 59.59375 L 105.164062 58.953125 L 112.441406 61.515625 Z M 116.933594 64.289062 "/>
<path style="fill-rule:nonzero;fill:rgb(100%,100%,100%);fill-opacity:1;stroke-width:3.1868;stroke-linecap:butt;stroke-linejoin:round;stroke:rgb(86.666667%,70.196078%,45.490196%);stroke-opacity:1;stroke-miterlimit:10;" d="M -232.751685 -30.691249 C -242.453195 -25.66289 -193.931102 -5.578604 -174.513538 -6.584276 C -155.095974 -7.589948 -106.573881 -32.702593 -116.275391 -36.72528 C -125.976901 -40.733392 -223.050176 -35.705033 -232.751685 -30.691249 Z M -232.751685 -30.691249 " transform="matrix(0.268563,0,0,0.268011,146.039795,92.327159)"/>
<path style=" stroke:none;fill-rule:nonzero;fill:rgb(86.666667%,70.196078%,45.490196%);fill-opacity:1;" d="M 80.089844 77.628906 C 80.089844 77.335938 80.378906 77.101562 80.734375 77.101562 C 81.09375 77.101562 81.382812 77.335938 81.382812 77.628906 C 81.382812 77.921875 81.09375 78.15625 80.734375 78.15625 C 80.378906 78.15625 80.089844 77.921875 80.089844 77.628906 Z M 80.089844 77.628906 "/>
<path style=" stroke:none;fill-rule:nonzero;fill:rgb(86.666667%,70.196078%,45.490196%);fill-opacity:1;" d="M 83.132812 79.921875 C 83.132812 79.628906 83.421875 79.394531 83.777344 79.394531 C 84.136719 79.394531 84.425781 79.628906 84.425781 79.921875 C 84.425781 80.210938 84.136719 80.449219 83.777344 80.449219 C 83.421875 80.449219 83.132812 80.210938 83.132812 79.921875 Z M 83.132812 79.921875 "/>
<path style=" stroke:none;fill-rule:nonzero;fill:rgb(86.666667%,70.196078%,45.490196%);fill-opacity:1;" d="M 85.867188 76.441406 C 86.109375 76.261719 86.484375 76.332031 86.703125 76.597656 C 86.925781 76.863281 86.910156 77.226562 86.671875 77.40625 C 86.429688 77.589844 86.054688 77.519531 85.832031 77.253906 C 85.613281 76.984375 85.628906 76.621094 85.867188 76.441406 Z M 85.867188 76.441406 "/>
<path style=" stroke:none;fill-rule:nonzero;fill:rgb(86.666667%,70.196078%,45.490196%);fill-opacity:1;" d="M 88.851562 78.261719 C 88.851562 77.972656 89.140625 77.734375 89.496094 77.734375 C 89.851562 77.734375 90.140625 77.972656 90.140625 78.261719 C 90.140625 78.554688 89.851562 78.789062 89.496094 78.789062 C 89.140625 78.789062 88.851562 78.554688 88.851562 78.261719 Z M 88.851562 78.261719 "/>
<path style=" stroke:none;fill-rule:nonzero;fill:rgb(86.666667%,70.196078%,45.490196%);fill-opacity:1;" d="M 81.84375 75 C 81.84375 74.710938 82.132812 74.472656 82.488281 74.472656 C 82.847656 74.472656 83.136719 74.710938 83.136719 75 C 83.136719 75.292969 82.847656 75.527344 82.488281 75.527344 C 82.132812 75.527344 81.84375 75.292969 81.84375 75 Z M 81.84375 75 "/>
<path style=" stroke:none;fill-rule:nonzero;fill:rgb(86.666667%,70.196078%,45.490196%);fill-opacity:1;" d="M 76.808594 79.082031 C 76.703125 78.8125 76.886719 78.492188 77.222656 78.375 C 77.554688 78.253906 77.910156 78.378906 78.019531 78.652344 C 78.125 78.921875 77.9375 79.242188 77.605469 79.359375 C 77.273438 79.480469 76.914062 79.355469 76.808594 79.082031 Z M 76.808594 79.082031 "/>
<path style=" stroke:none;fill-rule:nonzero;fill:rgb(86.666667%,70.196078%,45.490196%);fill-opacity:1;" d="M 119.828125 76.796875 C 119.792969 77.085938 119.5 77.289062 119.175781 77.25 C 118.847656 77.214844 118.609375 76.949219 118.644531 76.660156 C 118.675781 76.371094 118.96875 76.164062 119.296875 76.203125 C 119.625 76.242188 119.859375 76.507812 119.828125 76.796875 Z M 119.828125 76.796875 "/>
<path style=" stroke:none;fill-rule:nonzero;fill:rgb(86.666667%,70.196078%,45.490196%);fill-opacity:1;" d="M 117.296875 74.195312 C 117.265625 74.484375 116.972656 74.6875 116.644531 74.652344 C 116.320312 74.613281 116.082031 74.347656 116.113281 74.058594 C 116.148438 73.769531 116.441406 73.566406 116.765625 73.605469 C 117.09375 73.640625 117.332031 73.90625 117.296875 74.195312 Z M 117.296875 74.195312 "/>
<path style=" stroke:none;fill-rule:nonzero;fill:rgb(86.666667%,70.196078%,45.490196%);fill-opacity:1;" d="M 114.390625 77.363281 C 114.148438 77.515625 113.8125 77.40625 113.640625 77.121094 C 113.46875 76.832031 113.523438 76.472656 113.765625 76.320312 C 114.007812 76.164062 114.34375 76.273438 114.515625 76.5625 C 114.6875 76.851562 114.632812 77.207031 114.390625 77.363281 Z M 114.390625 77.363281 "/>
<path style=" stroke:none;fill-rule:nonzero;fill:rgb(86.666667%,70.196078%,45.490196%);fill-opacity:1;" d="M 111.859375 75.238281 C 111.828125 75.527344 111.535156 75.730469 111.207031 75.695312 C 110.878906 75.65625 110.644531 75.390625 110.675781 75.101562 C 110.710938 74.8125 111 74.609375 111.328125 74.644531 C 111.65625 74.683594 111.894531 74.949219 111.859375 75.238281 Z M 111.859375 75.238281 "/>
<path style=" stroke:none;fill-rule:nonzero;fill:rgb(86.666667%,70.196078%,45.490196%);fill-opacity:1;" d="M 117.914062 79.21875 C 117.882812 79.511719 117.589844 79.714844 117.261719 79.675781 C 116.9375 79.636719 116.699219 79.375 116.730469 79.085938 C 116.765625 78.792969 117.058594 78.589844 117.386719 78.628906 C 117.710938 78.667969 117.949219 78.929688 117.914062 79.21875 Z M 117.914062 79.21875 "/>
<path style=" stroke:none;fill-rule:nonzero;fill:rgb(86.666667%,70.196078%,45.490196%);fill-opacity:1;" d="M 109.851562 77.773438 C 109.816406 78.0625 109.523438 78.265625 109.199219 78.226562 C 108.871094 78.191406 108.632812 77.925781 108.667969 77.636719 C 108.699219 77.347656 108.992188 77.140625 109.320312 77.179688 C 109.648438 77.21875 109.882812 77.484375 109.851562 77.773438 Z M 109.851562 77.773438 "/>
<path style=" stroke:none;fill-rule:nonzero;fill:rgb(86.666667%,70.196078%,45.490196%);fill-opacity:1;" d="M 123.003906 75.699219 C 123.070312 75.980469 122.863281 76.277344 122.542969 76.359375 C 122.222656 76.445312 121.910156 76.28125 121.847656 76 C 121.78125 75.71875 121.988281 75.421875 122.304688 75.335938 C 122.625 75.253906 122.9375 75.414062 123.003906 75.699219 Z M 123.003906 75.699219 "/>
<path style=" stroke:none;fill-rule:nonzero;fill:rgb(100%,100%,100%);fill-opacity:1;" d="M 98.414062 110.09375 L 143.414062 85.398438 L 147.539062 92.90625 L 102.539062 117.597656 Z M 98.414062 110.09375 "/>
<path style="fill:none;stroke-width:3.1868;stroke-linecap:butt;stroke-linejoin:round;stroke:rgb(81.960784%,33.72549%,84.313725%);stroke-opacity:1;stroke-miterlimit:10;" d="M -171.83726 83.867886 L -172.637234 187.146007 " transform="matrix(0.268563,0,0,0.268011,146.039795,92.327159)"/>
<path style=" stroke:none;fill-rule:nonzero;fill:rgb(100%,100%,100%);fill-opacity:1;" d="M 106.484375 145.476562 L 94.292969 145.476562 C 91.421875 145.476562 88.664062 144.335938 86.632812 142.308594 C 84.601562 140.28125 83.460938 137.53125 83.460938 134.667969 L 83.460938 99.894531 L 117.320312 99.894531 L 117.320312 134.667969 C 117.320312 140.636719 112.46875 145.476562 106.488281 145.476562 Z M 106.484375 145.476562 "/>
<path style=" stroke:none;fill-rule:nonzero;fill:rgb(95.294118%,88.235294%,62.352941%);fill-opacity:1;" d="M 106.941406 99.367188 L 100.390625 117.511719 L 93.84375 99.367188 Z M 106.941406 99.367188 "/>
<path style="fill-rule:nonzero;fill:rgb(71.764706%,71.764706%,71.764706%);fill-opacity:1;stroke-width:3.1868;stroke-linecap:butt;stroke-linejoin:round;stroke:rgb(71.764706%,71.764706%,71.764706%);stroke-opacity:1;stroke-miterlimit:10;" d="M -151.299731 26.821518 L -120.333444 34.808592 L -166.499248 85.748055 Z M -151.299731 26.821518 " transform="matrix(0.268563,0,0,0.268011,146.039795,92.327159)"/>
<path style=" stroke:none;fill-rule:nonzero;fill:rgb(51.764706%,94.901961%,27.058824%);fill-opacity:1;" d="M 104.023438 104.859375 L 100.390625 117.785156 L 96.757812 104.859375 Z M 104.023438 104.859375 "/>
<path style=" stroke:none;fill-rule:nonzero;fill:rgb(51.764706%,94.901961%,27.058824%);fill-opacity:1;" d="M 73.5625 59.035156 C 74.039062 47.222656 85.953125 38.109375 100.175781 38.679688 C 114.394531 39.246094 125.539062 49.28125 125.0625 61.09375 C 121.855469 51.648438 111.703125 44.917969 99.941406 44.449219 C 88.183594 43.976562 77.519531 49.875 73.5625 59.035156 Z M 73.5625 59.035156 "/>
<path style="fill:none;stroke-width:6.3736;stroke-linecap:round;stroke-linejoin:round;stroke:rgb(71.764706%,71.764706%,71.764706%);stroke-opacity:1;stroke-miterlimit:10;" d="M -170.455486 87.278425 L -170.90638 179.465007 " transform="matrix(0.268563,0,0,0.268011,146.039795,92.327159)"/>
<path style="fill-rule:nonzero;fill:rgb(100%,100%,100%);fill-opacity:0.388235;stroke-width:12.747;stroke-linecap:butt;stroke-linejoin:round;stroke:rgb(40%,40%,40%);stroke-opacity:1;stroke-miterlimit:10;" d="M -78.327507 -94.77732 C -75.825769 -86.571621 -76.654833 -81.368363 -78.327507 -76.718953 C -80.000181 -72.084117 -80.465621 -70.145649 -88.349007 -66.880859 C -96.232392 -63.616069 -112.537328 -56.620092 -125.613276 -57.101065 C -138.674678 -57.596614 -155.488689 -69.5918 -166.761058 -69.825 C -178.047971 -70.043624 -184.811392 -60.584479 -193.320213 -58.471111 C -201.814488 -56.343168 -207.690665 -57.334264 -217.741254 -57.101065 C -227.806388 -56.882441 -246.118533 -53.559351 -253.667384 -57.101065 C -261.216234 -60.657354 -263.456163 -68.00313 -263.034358 -78.409647 C -262.612554 -88.801589 -267.136046 -110.766044 -251.09292 -119.511016 C -235.049794 -128.255989 -193.058403 -129.800934 -166.761058 -130.864905 C -140.478257 -131.943452 -108.101106 -131.958027 -93.367029 -125.953146 C -78.618407 -119.93369 -80.829246 -102.983019 -78.327507 -94.77732 Z M -78.327507 -94.77732 " transform="matrix(0.268563,0,0,0.268011,146.039795,92.327159)"/>
<path style="fill-rule:nonzero;fill:rgb(93.72549%,93.72549%,93.72549%);fill-opacity:1;stroke-width:6.3736;stroke-linecap:butt;stroke-linejoin:round;stroke:rgb(60%,60%,60%);stroke-opacity:1;stroke-miterlimit:10;" d="M 14.033191 -98.654258 L 25.872814 -42.176313 L 8.709724 35.522765 L 31.152646 38.59808 L 62.628008 35.59564 L 94.641535 26.282244 L 111.033741 14.447382 L 63.413438 -48.924516 L 50.584755 -106.116634 Z M 14.033191 -98.654258 " transform="matrix(0.268563,0,0,0.268011,146.039795,92.327159)"/>
<path style=" stroke:none;fill-rule:nonzero;fill:rgb(16.078431%,84.313725%,14.901961%);fill-opacity:1;" d="M 156.933594 85.515625 L 152.519531 84.882812 L 148.378906 101.847656 L 154.40625 102.671875 L 162.859375 101.867188 L 171.457031 99.371094 L 175.859375 96.199219 L 164.925781 82.179688 L 162.367188 84.304688 Z M 156.933594 85.515625 "/>
<path style="fill:none;stroke-width:6.3736;stroke-linecap:butt;stroke-linejoin:round;stroke:rgb(40%,40%,40%);stroke-opacity:1;stroke-miterlimit:10;" d="M 14.033191 -98.654258 L 25.872814 -42.176313 L 8.709724 35.522765 L 31.152646 38.59808 L 62.628008 35.59564 L 94.641535 26.282244 L 111.033741 14.447382 L 63.413438 -48.924516 L 50.584755 -106.116634 Z M 14.033191 -98.654258 " transform="matrix(0.268563,0,0,0.268011,146.039795,92.327159)"/>
<path style=" stroke:none;fill-rule:nonzero;fill:rgb(16.078431%,84.313725%,14.901961%);fill-opacity:1;" d="M 154.554688 82.203125 C 154.554688 80.976562 155.582031 79.976562 156.851562 79.976562 C 157.460938 79.976562 158.046875 80.210938 158.476562 80.628906 C 158.90625 81.046875 159.148438 81.613281 159.148438 82.203125 C 159.148438 83.433594 158.121094 84.429688 156.851562 84.429688 C 155.582031 84.429688 154.554688 83.433594 154.554688 82.203125 Z M 154.554688 82.203125 "/>
<path style=" stroke:none;fill-rule:nonzero;fill:rgb(16.078431%,84.313725%,14.901961%);fill-opacity:1;" d="M 157.472656 76 C 157.472656 75.035156 158.277344 74.25 159.269531 74.25 C 159.746094 74.25 160.207031 74.433594 160.542969 74.761719 C 160.878906 75.089844 161.070312 75.535156 161.070312 76 C 161.070312 76.964844 160.265625 77.746094 159.269531 77.746094 C 158.277344 77.746094 157.472656 76.964844 157.472656 76 Z M 157.472656 76 "/>
<path style=" stroke:none;fill-rule:nonzero;fill:rgb(16.078431%,84.313725%,14.901961%);fill-opacity:1;" d="M 152.875 69.917969 C 152.875 69.148438 153.507812 68.523438 154.289062 68.523438 C 154.664062 68.523438 155.023438 68.671875 155.289062 68.933594 C 155.554688 69.191406 155.703125 69.546875 155.703125 69.917969 C 155.703125 70.683594 155.070312 71.308594 154.289062 71.308594 C 153.507812 71.308594 152.875 70.683594 152.875 69.917969 Z M 152.875 69.917969 "/>
<path style=" stroke:none;fill-rule:nonzero;fill:rgb(80%,54.901961%,26.666667%);fill-opacity:1;" d="M 52.398438 85.300781 C 52.074219 84.238281 49.59375 81.933594 48.09375 80.558594 C 46.589844 79.1875 44.488281 77.464844 43.390625 77.058594 C 42.289062 76.652344 41.269531 77.234375 41.496094 78.128906 C 41.722656 79.023438 43.3125 80.953125 44.738281 82.421875 C 46.164062 83.890625 48.769531 86.457031 50.046875 86.9375 C 51.324219 87.417969 52.726562 86.363281 52.398438 85.300781 Z M 52.398438 85.300781 "/>
<path style=" stroke:none;fill-rule:nonzero;fill:rgb(80%,54.901961%,26.666667%);fill-opacity:1;" d="M 50.128906 85.648438 C 49.574219 84.601562 46.75 82.746094 45.042969 81.644531 C 43.339844 80.542969 41 79.214844 39.894531 79.042969 C 38.789062 78.871094 37.996094 79.71875 38.414062 80.609375 C 38.835938 81.5 40.757812 83.171875 42.414062 84.390625 C 44.074219 85.609375 47.078125 87.710938 48.363281 87.917969 C 49.648438 88.128906 50.679688 86.691406 50.128906 85.648438 Z M 50.128906 85.648438 "/>
<path style=" stroke:none;fill-rule:nonzero;fill:rgb(80%,54.901961%,26.666667%);fill-opacity:1;" d="M 49.367188 87.042969 C 48.617188 86.128906 45.59375 84.785156 43.773438 83.996094 C 41.953125 83.207031 39.5 82.292969 38.449219 82.300781 C 37.398438 82.304688 36.871094 83.238281 37.464844 84.023438 C 38.058594 84.8125 40.210938 86.113281 42.015625 87.019531 C 43.816406 87.929688 47.0625 89.480469 48.289062 89.480469 C 49.511719 89.484375 50.121094 87.957031 49.367188 87.042969 Z M 49.367188 87.042969 "/>
<path style=" stroke:none;fill-rule:nonzero;fill:rgb(95.294118%,84.313725%,62.352941%);fill-opacity:1;" d="M 49.871094 87.328125 C 48.878906 86.652344 45.84375 86.351562 44.023438 86.191406 C 42.199219 86.027344 39.804688 85.96875 38.941406 86.351562 C 38.074219 86.738281 38.019531 87.894531 38.832031 88.496094 C 39.640625 89.097656 41.945312 89.671875 43.800781 89.960938 C 45.660156 90.253906 48.960938 90.6875 49.972656 90.25 C 50.988281 89.8125 50.863281 88.007812 49.871094 87.328125 Z M 49.871094 87.328125 "/>
<path style=" stroke:none;fill-rule:nonzero;fill:rgb(95.294118%,84.313725%,62.352941%);fill-opacity:1;" d="M 50.421875 83.167969 L 47.453125 89.34375 L 56.523438 94.871094 L 59.496094 88.695312 Z M 50.421875 83.167969 "/>
<path style=" stroke:none;fill-rule:nonzero;fill:rgb(100%,100%,100%);fill-opacity:1;" d="M 54.386719 84.90625 L 87.988281 102.058594 L 84.078125 109.65625 L 50.476562 92.503906 Z M 54.386719 84.90625 "/>
<path style="fill-rule:nonzero;fill:rgb(93.72549%,93.72549%,93.72549%);fill-opacity:1;stroke-width:6.3736;stroke-linecap:butt;stroke-linejoin:round;stroke:rgb(40%,40%,40%);stroke-opacity:1;stroke-miterlimit:10;" d="M -370.100043 -127.93534 C -367.452855 -126.623594 -363.671157 -125.107799 -360.907608 -124.437351 C -358.129515 -123.766903 -356.122306 -123.621153 -353.460573 -123.941802 C -350.798839 -124.247876 -346.013537 -128.183114 -344.893572 -126.332095 C -343.788153 -124.481076 -345.882632 -118.25757 -346.784421 -112.850263 C -347.700756 -107.42838 -345.838997 -116.81465 -350.347944 -93.815373 C -354.856892 -70.816096 -367.787389 1.213324 -373.823561 25.174548 C -379.859733 49.121197 -381.750582 46.585155 -386.564974 49.908244 C -391.393911 53.231334 -399.553652 49.54387 -402.768095 45.098509 C -405.982538 40.653149 -407.393402 38.831279 -405.822543 23.206929 C -404.251684 7.597154 -397.517353 -25.72119 -393.328395 -48.574717 C -389.124892 -71.442819 -383.379621 -100.009728 -380.630617 -113.957959 C -377.867069 -127.920765 -378.565228 -129.975833 -376.819829 -132.307826 C -375.059885 -134.639818 -372.747232 -129.247085 -370.100043 -127.93534 Z M -370.100043 -127.93534 " transform="matrix(0.268563,0,0,0.268011,146.039795,92.327159)"/>
<path style=" stroke:none;fill-rule:nonzero;fill:rgb(100%,58.431373%,11.764706%);fill-opacity:1;" d="M 43.308594 75.835938 C 44.035156 76.109375 45.0625 76.4375 45.8125 76.601562 C 46.558594 76.765625 47.09375 76.828125 47.792969 76.820312 C 48.496094 76.816406 49.691406 76.234375 50.019531 76.570312 C 50.347656 76.90625 49.90625 77.925781 49.765625 78.832031 C 49.625 79.738281 49.945312 78.171875 49.171875 82.007812 C 48.398438 85.839844 46.289062 97.867188 45.128906 101.832031 C 43.964844 105.800781 43.421875 105.332031 42.203125 105.808594 C 40.984375 106.285156 38.753906 105.511719 37.820312 104.695312 C 36.886719 103.878906 36.476562 103.542969 36.609375 100.914062 C 36.738281 98.285156 37.914062 92.738281 38.605469 88.921875 C 39.300781 85.105469 40.300781 80.347656 40.773438 78.023438 C 41.25 75.699219 41.027344 75.332031 41.449219 74.96875 C 41.871094 74.605469 42.582031 75.5625 43.308594 75.835938 Z M 43.308594 75.835938 "/>
<path style="fill:none;stroke-width:6.3736;stroke-linecap:butt;stroke-linejoin:round;stroke:rgb(40%,40%,40%);stroke-opacity:1;stroke-miterlimit:10;" d="M -370.565483 -125.399298 C -367.918294 -124.087552 -364.151142 -122.571757 -361.373048 -121.901309 C -358.594955 -121.230861 -356.602291 -121.085111 -353.926012 -121.391185 C -351.264279 -121.711834 -346.478976 -125.647072 -345.373557 -123.796053 C -344.253593 -121.945034 -346.348072 -115.721528 -347.264406 -110.299646 C -348.166196 -104.877763 -346.304437 -114.278608 -350.813384 -91.279331 C -355.322332 -68.280055 -368.252829 3.749366 -374.289001 27.71059 C -380.325172 51.657239 -382.216021 49.121197 -387.030414 52.444286 C -391.859351 55.767375 -400.033636 52.079912 -403.233535 47.634551 C -406.447978 43.189191 -407.873387 41.367321 -406.287983 25.757546 C -404.717124 10.147771 -397.997337 -23.170573 -393.793835 -46.038675 C -389.590332 -68.892203 -383.84506 -97.459112 -381.096057 -111.421917 C -378.347054 -125.370148 -379.045213 -127.439791 -377.285269 -129.771784 C -375.53987 -132.089201 -373.227216 -126.711043 -370.565483 -125.399298 Z M -370.565483 -125.399298 " transform="matrix(0.268563,0,0,0.268011,146.039795,92.327159)"/>
<path style=" stroke:none;fill-rule:nonzero;fill:rgb(100%,58.431373%,11.764706%);fill-opacity:1;" d="M 44.738281 72.710938 C 44.964844 71.503906 46.070312 70.695312 47.210938 70.910156 C 47.757812 71.011719 48.238281 71.339844 48.546875 71.820312 C 48.855469 72.304688 48.96875 72.902344 48.859375 73.480469 C 48.632812 74.691406 47.527344 75.496094 46.390625 75.285156 C 45.25 75.074219 44.511719 73.921875 44.738281 72.710938 Z M 44.738281 72.710938 "/>
<path style=" stroke:none;fill-rule:nonzero;fill:rgb(100%,58.431373%,11.764706%);fill-opacity:1;" d="M 44.0625 68.296875 C 44.207031 67.542969 44.886719 67.035156 45.589844 67.167969 C 45.925781 67.230469 46.222656 67.433594 46.414062 67.734375 C 46.601562 68.035156 46.671875 68.410156 46.601562 68.773438 C 46.460938 69.527344 45.777344 70.035156 45.078125 69.902344 C 44.375 69.773438 43.921875 69.054688 44.0625 68.296875 Z M 44.0625 68.296875 "/>
<path style=" stroke:none;fill-rule:nonzero;fill:rgb(100%,58.431373%,11.764706%);fill-opacity:1;" d="M 47.292969 65.101562 C 47.46875 64.152344 48.335938 63.515625 49.226562 63.683594 C 49.65625 63.761719 50.03125 64.019531 50.273438 64.398438 C 50.515625 64.777344 50.605469 65.246094 50.519531 65.703125 C 50.34375 66.652344 49.476562 67.285156 48.582031 67.121094 C 47.691406 66.953125 47.113281 66.050781 47.292969 65.101562 Z M 47.292969 65.101562 "/>
<path style=" stroke:none;fill-rule:nonzero;fill:rgb(100%,58.431373%,11.764706%);fill-opacity:1;" d="M 45.332031 61.539062 C 45.472656 60.78125 46.15625 60.277344 46.859375 60.40625 C 47.195312 60.46875 47.488281 60.675781 47.679688 60.976562 C 47.871094 61.277344 47.9375 61.648438 47.871094 62.011719 C 47.730469 62.769531 47.046875 63.273438 46.34375 63.144531 C 45.644531 63.011719 45.191406 62.292969 45.332031 61.539062 Z M 45.332031 61.539062 "/>
<path style=" stroke:none;fill-rule:nonzero;fill:rgb(95.294118%,88.235294%,62.352941%);fill-opacity:1;" d="M 27.847656 84.707031 C 28.679688 85.5 32.070312 86.3125 34.109375 86.78125 C 36.152344 87.253906 38.910156 87.734375 40.101562 87.539062 C 41.292969 87.34375 41.910156 86.304688 41.253906 85.613281 C 40.601562 84.925781 38.195312 83.996094 36.171875 83.402344 C 34.152344 82.804688 30.515625 81.824219 29.125 82.042969 C 27.738281 82.257812 27.015625 83.917969 27.847656 84.707031 Z M 27.847656 84.707031 "/>
<path style=" stroke:none;fill-rule:nonzero;fill:rgb(95.294118%,88.235294%,62.352941%);fill-opacity:1;" d="M 29.707031 83.242188 C 30.734375 83.902344 34.207031 84.132812 36.292969 84.257812 C 38.382812 84.378906 41.152344 84.386719 42.230469 83.976562 C 43.304688 83.570312 43.585938 82.402344 42.757812 81.8125 C 41.929688 81.226562 39.363281 80.699219 37.257812 80.449219 C 35.15625 80.195312 31.394531 79.835938 30.136719 80.300781 C 28.878906 80.765625 28.683594 82.582031 29.707031 83.242188 Z M 29.707031 83.242188 "/>
<path style=" stroke:none;fill-rule:nonzero;fill:rgb(95.294118%,88.235294%,62.352941%);fill-opacity:1;" d="M 29.683594 81.597656 C 30.820312 82.039062 34.210938 81.707031 36.242188 81.492188 C 38.273438 81.28125 40.933594 80.851562 41.875 80.3125 C 42.8125 79.773438 42.8125 78.664062 41.882812 78.257812 C 40.949219 77.851562 38.363281 77.777344 36.285156 77.875 C 34.207031 77.976562 30.515625 78.234375 29.417969 78.855469 C 28.316406 79.476562 28.546875 81.160156 29.683594 81.597656 Z M 29.683594 81.597656 "/>
<path style=" stroke:none;fill-rule:nonzero;fill:rgb(80%,54.901961%,26.666667%);fill-opacity:1;" d="M 29.085938 81.597656 C 30.316406 81.703125 33.191406 80.425781 34.90625 79.644531 C 36.621094 78.867188 38.796875 77.699219 39.378906 76.914062 C 39.957031 76.128906 39.421875 75.058594 38.390625 74.929688 C 37.359375 74.800781 35.003906 75.457031 33.191406 76.140625 C 31.378906 76.820312 28.199219 78.113281 27.515625 79.023438 C 26.828125 79.933594 27.855469 81.496094 29.085938 81.597656 Z M 29.085938 81.597656 "/>
<path style=" stroke:none;fill-rule:nonzero;fill:rgb(80%,54.901961%,26.666667%);fill-opacity:1;" d="M 30.679688 85.347656 L 30.230469 78.554688 L 26.085938 78.417969 L 26.535156 85.210938 Z M 30.679688 85.347656 "/>
<path style=" stroke:none;fill-rule:nonzero;fill:rgb(80%,54.901961%,26.666667%);fill-opacity:1;" d="M 27.445312 81.351562 C 27.171875 82.285156 28.636719 84.789062 29.535156 86.285156 C 30.4375 87.785156 31.820312 89.722656 32.847656 90.339844 C 33.871094 90.957031 35.410156 90.765625 35.695312 89.992188 C 35.984375 89.21875 35.320312 87.253906 34.566406 85.699219 C 33.8125 84.148438 32.359375 81.402344 31.171875 80.679688 C 29.988281 79.953125 27.71875 80.417969 27.445312 81.351562 Z M 27.445312 81.351562 "/>
<path style=" stroke:none;fill-rule:nonzero;fill:rgb(77.254902%,14.901961%,86.666667%);fill-opacity:1;" d="M 21.445312 90.5 L 24.519531 72.367188 L 40.203125 75.011719 L 37.128906 93.148438 Z M 21.445312 90.5 "/>
<path style=" stroke:none;fill-rule:nonzero;fill:rgb(95.294118%,88.235294%,62.352941%);fill-opacity:1;" d="M 52.121094 88.644531 C 52.609375 87.910156 52.199219 85.125 51.933594 83.449219 C 51.671875 81.773438 51.15625 79.523438 50.535156 78.589844 C 49.914062 77.652344 48.652344 77.25 48.203125 77.835938 C 47.75 78.421875 47.6875 80.429688 47.824219 82.097656 C 47.957031 83.769531 48.289062 86.765625 49.003906 87.855469 C 49.71875 88.949219 51.632812 89.378906 52.121094 88.644531 Z M 52.121094 88.644531 "/>
<path style="fill-rule:nonzero;fill:rgb(71.764706%,71.764706%,71.764706%);fill-opacity:1;stroke-width:3.1868;stroke-linecap:butt;stroke-linejoin:round;stroke:rgb(71.764706%,71.764706%,71.764706%);stroke-opacity:1;stroke-miterlimit:10;" d="M -188.404005 27.317066 L -219.123028 34.604543 L -174.513538 85.79178 Z M -188.404005 27.317066 " transform="matrix(0.268563,0,0,0.268011,146.039795,92.327159)"/>
</g>
</svg>
