<?xml version="1.0" encoding="UTF-8"?>
<svg xmlns="http://www.w3.org/2000/svg" xmlns:xlink="http://www.w3.org/1999/xlink" width="200px" height="209px" viewBox="0 0 200 208" version="1.1">
<defs>
<linearGradient id="linear0" gradientUnits="userSpaceOnUse" x1="111.83297" y1="353.7692" x2="157.99779" y2="354.18417" gradientTransform="matrix(1,0,0,1,0,0.000000000000007105)">
<stop offset="0" style="stop-color:rgb(50.196078%,0%,0%);stop-opacity:1;"/>
<stop offset="0.612378" style="stop-color:rgb(100%,27.45098%,7.843137%);stop-opacity:1;"/>
<stop offset="1" style="stop-color:rgb(83.137255%,0%,0%);stop-opacity:1;"/>
</linearGradient>
<linearGradient id="linear1" gradientUnits="userSpaceOnUse" x1="111.83297" y1="353.7692" x2="157.99779" y2="354.18417" >
<stop offset="0" style="stop-color:rgb(50.196078%,0%,0%);stop-opacity:1;"/>
<stop offset="0.612378" style="stop-color:rgb(100%,27.45098%,7.843137%);stop-opacity:1;"/>
<stop offset="1" style="stop-color:rgb(83.137255%,0%,0%);stop-opacity:1;"/>
</linearGradient>
<linearGradient id="linear2" gradientUnits="userSpaceOnUse" x1="111.83297" y1="353.7692" x2="157.99779" y2="354.18417" gradientTransform="matrix(1,0,0,1,0.000000000000007105,0)">
<stop offset="0" style="stop-color:rgb(50.196078%,0%,0%);stop-opacity:1;"/>
<stop offset="0.612378" style="stop-color:rgb(100%,27.45098%,7.843137%);stop-opacity:1;"/>
<stop offset="1" style="stop-color:rgb(83.137255%,0%,0%);stop-opacity:1;"/>
</linearGradient>
<linearGradient id="linear3" gradientUnits="userSpaceOnUse" x1="111.83297" y1="353.7692" x2="157.99779" y2="354.18417" >
<stop offset="0" style="stop-color:rgb(50.196078%,0%,0%);stop-opacity:1;"/>
<stop offset="0.612378" style="stop-color:rgb(100%,27.45098%,7.843137%);stop-opacity:1;"/>
<stop offset="1" style="stop-color:rgb(83.137255%,0%,0%);stop-opacity:1;"/>
</linearGradient>
<linearGradient id="linear4" gradientUnits="userSpaceOnUse" x1="111.83297" y1="353.7692" x2="157.99779" y2="354.18417" gradientTransform="matrix(0.985317,0,0,0.985317,211.61536,-189.63723)">
<stop offset="0" style="stop-color:rgb(50.196078%,0%,0%);stop-opacity:1;"/>
<stop offset="0.612378" style="stop-color:rgb(100%,27.45098%,7.843137%);stop-opacity:1;"/>
<stop offset="1" style="stop-color:rgb(83.137255%,0%,0%);stop-opacity:1;"/>
</linearGradient>
<linearGradient id="linear5" gradientUnits="userSpaceOnUse" x1="111.83297" y1="353.7692" x2="157.99779" y2="354.18417" >
<stop offset="0" style="stop-color:rgb(50.196078%,0%,0%);stop-opacity:1;"/>
<stop offset="0.612378" style="stop-color:rgb(100%,27.45098%,7.843137%);stop-opacity:1;"/>
<stop offset="1" style="stop-color:rgb(83.137255%,0%,0%);stop-opacity:1;"/>
</linearGradient>
<linearGradient id="linear6" gradientUnits="userSpaceOnUse" x1="111.83297" y1="353.7692" x2="157.99779" y2="354.18417" >
<stop offset="0" style="stop-color:rgb(50.196078%,0%,0%);stop-opacity:1;"/>
<stop offset="0.612378" style="stop-color:rgb(100%,27.45098%,7.843137%);stop-opacity:1;"/>
<stop offset="1" style="stop-color:rgb(83.137255%,0%,0%);stop-opacity:1;"/>
</linearGradient>
<linearGradient id="linear7" gradientUnits="userSpaceOnUse" x1="111.83297" y1="353.7692" x2="157.99779" y2="354.18417" >
<stop offset="0" style="stop-color:rgb(50.196078%,0%,0%);stop-opacity:1;"/>
<stop offset="0.612378" style="stop-color:rgb(100%,27.45098%,7.843137%);stop-opacity:1;"/>
<stop offset="1" style="stop-color:rgb(83.137255%,0%,0%);stop-opacity:1;"/>
</linearGradient>
<linearGradient id="linear8" gradientUnits="userSpaceOnUse" x1="111.83297" y1="353.7692" x2="157.99779" y2="354.18417" gradientTransform="matrix(1.023615,0,0,1.023615,121.18429,186.74175)">
<stop offset="0" style="stop-color:rgb(87.843137%,40.392157%,0%);stop-opacity:1;"/>
<stop offset="0.612378" style="stop-color:rgb(92.54902%,87.058824%,22.352941%);stop-opacity:1;"/>
<stop offset="1" style="stop-color:rgb(98.039216%,66.27451%,0%);stop-opacity:1;"/>
</linearGradient>
<linearGradient id="linear9" gradientUnits="userSpaceOnUse" x1="111.83297" y1="353.7692" x2="157.99779" y2="354.18417" gradientTransform="matrix(0.985317,0,0,0.985317,183.4207,184.53147)">
<stop offset="0" style="stop-color:rgb(87.843137%,40.392157%,0%);stop-opacity:1;"/>
<stop offset="0.612378" style="stop-color:rgb(92.54902%,87.058824%,22.352941%);stop-opacity:1;"/>
<stop offset="1" style="stop-color:rgb(98.039216%,66.27451%,0%);stop-opacity:1;"/>
</linearGradient>
<linearGradient id="linear10" gradientUnits="userSpaceOnUse" x1="111.83297" y1="353.7692" x2="157.99779" y2="354.18417" gradientTransform="matrix(0.985317,0,0,0.985317,239.74168,167.03369)">
<stop offset="0" style="stop-color:rgb(87.843137%,40.392157%,0%);stop-opacity:1;"/>
<stop offset="0.612378" style="stop-color:rgb(92.54902%,87.058824%,22.352941%);stop-opacity:1;"/>
<stop offset="1" style="stop-color:rgb(98.039216%,66.27451%,0%);stop-opacity:1;"/>
</linearGradient>
<linearGradient id="linear11" gradientUnits="userSpaceOnUse" x1="111.83297" y1="353.7692" x2="157.99779" y2="354.18417" gradientTransform="matrix(1,0,0,1,77.338828,174.58464)">
<stop offset="0" style="stop-color:rgb(87.843137%,40.392157%,0%);stop-opacity:1;"/>
<stop offset="0.612378" style="stop-color:rgb(92.54902%,87.058824%,22.352941%);stop-opacity:1;"/>
<stop offset="1" style="stop-color:rgb(98.039216%,66.27451%,0%);stop-opacity:1;"/>
</linearGradient>
<linearGradient id="linear12" gradientUnits="userSpaceOnUse" x1="111.83297" y1="353.7692" x2="157.99779" y2="354.18417" gradientTransform="matrix(0.980988,0,0,0.980988,136.87324,165.77491)">
<stop offset="0" style="stop-color:rgb(87.843137%,40.392157%,0%);stop-opacity:1;"/>
<stop offset="0.612378" style="stop-color:rgb(92.54902%,87.058824%,22.352941%);stop-opacity:1;"/>
<stop offset="1" style="stop-color:rgb(98.039216%,66.27451%,0%);stop-opacity:1;"/>
</linearGradient>
<linearGradient id="linear13" gradientUnits="userSpaceOnUse" x1="111.83297" y1="353.7692" x2="157.99779" y2="354.18417" gradientTransform="matrix(0.980988,0,0,0.980988,193.74103,149.37074)">
<stop offset="0" style="stop-color:rgb(87.843137%,40.392157%,0%);stop-opacity:1;"/>
<stop offset="0.612378" style="stop-color:rgb(92.54902%,87.058824%,22.352941%);stop-opacity:1;"/>
<stop offset="1" style="stop-color:rgb(98.039216%,66.27451%,0%);stop-opacity:1;"/>
</linearGradient>
<linearGradient id="linear14" gradientUnits="userSpaceOnUse" x1="111.83297" y1="353.7692" x2="157.99779" y2="354.18417" >
<stop offset="0" style="stop-color:rgb(50.196078%,0%,0%);stop-opacity:1;"/>
<stop offset="0.612378" style="stop-color:rgb(100%,27.45098%,7.843137%);stop-opacity:1;"/>
<stop offset="1" style="stop-color:rgb(83.137255%,0%,0%);stop-opacity:1;"/>
</linearGradient>
<linearGradient id="linear15" gradientUnits="userSpaceOnUse" x1="111.83297" y1="353.7692" x2="157.99779" y2="354.18417" gradientTransform="matrix(1,0,0,1,-0.000000000000028422,0)">
<stop offset="0" style="stop-color:rgb(50.196078%,0%,0%);stop-opacity:1;"/>
<stop offset="0.612378" style="stop-color:rgb(100%,27.45098%,7.843137%);stop-opacity:1;"/>
<stop offset="1" style="stop-color:rgb(83.137255%,0%,0%);stop-opacity:1;"/>
</linearGradient>
<linearGradient id="linear16" gradientUnits="userSpaceOnUse" x1="414.17712" y1="422.03949" x2="459.80957" y2="422.03949" >
<stop offset="0" style="stop-color:rgb(8.235294%,8.627451%,63.529412%);stop-opacity:1;"/>
<stop offset="0.612378" style="stop-color:rgb(34.509804%,34.901961%,91.372549%);stop-opacity:1;"/>
<stop offset="1" style="stop-color:rgb(13.333333%,13.72549%,88.627451%);stop-opacity:1;"/>
</linearGradient>
<linearGradient id="linear17" gradientUnits="userSpaceOnUse" x1="111.83297" y1="353.7692" x2="157.99779" y2="354.18417" >
<stop offset="0" style="stop-color:rgb(50.196078%,0%,0%);stop-opacity:1;"/>
<stop offset="0.612378" style="stop-color:rgb(100%,27.45098%,7.843137%);stop-opacity:1;"/>
<stop offset="1" style="stop-color:rgb(83.137255%,0%,0%);stop-opacity:1;"/>
</linearGradient>
<linearGradient id="linear18" gradientUnits="userSpaceOnUse" x1="111.83297" y1="353.7692" x2="157.99779" y2="354.18417" gradientTransform="matrix(1,0,0,1,0,0.000000000000028422)">
<stop offset="0" style="stop-color:rgb(50.196078%,0%,0%);stop-opacity:1;"/>
<stop offset="0.612378" style="stop-color:rgb(100%,27.45098%,7.843137%);stop-opacity:1;"/>
<stop offset="1" style="stop-color:rgb(83.137255%,0%,0%);stop-opacity:1;"/>
</linearGradient>
<linearGradient id="linear19" gradientUnits="userSpaceOnUse" x1="111.83297" y1="353.7692" x2="157.99779" y2="354.18417" >
<stop offset="0" style="stop-color:rgb(50.196078%,0%,0%);stop-opacity:1;"/>
<stop offset="0.612378" style="stop-color:rgb(100%,27.45098%,7.843137%);stop-opacity:1;"/>
<stop offset="1" style="stop-color:rgb(83.137255%,0%,0%);stop-opacity:1;"/>
</linearGradient>
<linearGradient id="linear20" gradientUnits="userSpaceOnUse" x1="111.83297" y1="353.7692" x2="157.99779" y2="354.18417" >
<stop offset="0" style="stop-color:rgb(50.196078%,0%,0%);stop-opacity:1;"/>
<stop offset="0.612378" style="stop-color:rgb(100%,27.45098%,7.843137%);stop-opacity:1;"/>
<stop offset="1" style="stop-color:rgb(83.137255%,0%,0%);stop-opacity:1;"/>
</linearGradient>
<linearGradient id="linear21" gradientUnits="userSpaceOnUse" x1="111.83297" y1="353.7692" x2="157.99779" y2="354.18417" gradientTransform="matrix(1,0,0,1,0.000000000000007105,0)">
<stop offset="0" style="stop-color:rgb(50.196078%,0%,0%);stop-opacity:1;"/>
<stop offset="0.612378" style="stop-color:rgb(100%,27.45098%,7.843137%);stop-opacity:1;"/>
<stop offset="1" style="stop-color:rgb(83.137255%,0%,0%);stop-opacity:1;"/>
</linearGradient>
<linearGradient id="linear22" gradientUnits="userSpaceOnUse" x1="111.83297" y1="353.7692" x2="157.99779" y2="354.18417" gradientTransform="matrix(1,0,0,1,160.65368,-136.02989)">
<stop offset="0" style="stop-color:rgb(11.372549%,41.568627%,11.372549%);stop-opacity:1;"/>
<stop offset="0.612378" style="stop-color:rgb(18.039216%,86.666667%,18.039216%);stop-opacity:1;"/>
<stop offset="1" style="stop-color:rgb(11.372549%,74.117647%,11.372549%);stop-opacity:1;"/>
</linearGradient>
<linearGradient id="linear23" gradientUnits="userSpaceOnUse" x1="111.83297" y1="353.7692" x2="157.99779" y2="354.18417" gradientTransform="matrix(1.023615,0,0,1.023615,205.04594,-123.32597)">
<stop offset="0" style="stop-color:rgb(11.372549%,41.568627%,11.372549%);stop-opacity:1;"/>
<stop offset="0.612378" style="stop-color:rgb(18.039216%,86.666667%,18.039216%);stop-opacity:1;"/>
<stop offset="1" style="stop-color:rgb(11.372549%,74.117647%,11.372549%);stop-opacity:1;"/>
</linearGradient>
<linearGradient id="linear24" gradientUnits="userSpaceOnUse" x1="111.83297" y1="353.7692" x2="157.99779" y2="354.18417" gradientTransform="matrix(1.023615,0,0,1.023615,262.46054,-139.73014)">
<stop offset="0" style="stop-color:rgb(11.372549%,41.568627%,11.372549%);stop-opacity:1;"/>
<stop offset="0.612378" style="stop-color:rgb(18.039216%,86.666667%,18.039216%);stop-opacity:1;"/>
<stop offset="1" style="stop-color:rgb(11.372549%,74.117647%,11.372549%);stop-opacity:1;"/>
</linearGradient>
<linearGradient id="linear25" gradientUnits="userSpaceOnUse" x1="111.83297" y1="353.7692" x2="157.99779" y2="354.18417" gradientTransform="matrix(0.985317,0,0,0.985317,324.69695,-141.94042)">
<stop offset="0" style="stop-color:rgb(11.372549%,41.568627%,11.372549%);stop-opacity:1;"/>
<stop offset="0.612378" style="stop-color:rgb(18.039216%,86.666667%,18.039216%);stop-opacity:1;"/>
<stop offset="1" style="stop-color:rgb(11.372549%,74.117647%,11.372549%);stop-opacity:1;"/>
</linearGradient>
<linearGradient id="linear26" gradientUnits="userSpaceOnUse" x1="111.83297" y1="353.7692" x2="157.99779" y2="354.18417" gradientTransform="matrix(0.985317,0,0,0.985317,381.01793,-159.4382)">
<stop offset="0" style="stop-color:rgb(11.372549%,41.568627%,11.372549%);stop-opacity:1;"/>
<stop offset="0.612378" style="stop-color:rgb(18.039216%,86.666667%,18.039216%);stop-opacity:1;"/>
<stop offset="1" style="stop-color:rgb(11.372549%,74.117647%,11.372549%);stop-opacity:1;"/>
</linearGradient>
<linearGradient id="linear27" gradientUnits="userSpaceOnUse" x1="111.83297" y1="353.7692" x2="157.99779" y2="354.18417" gradientTransform="matrix(1,0,0,1,218.61508,-151.88725)">
<stop offset="0" style="stop-color:rgb(11.372549%,41.568627%,11.372549%);stop-opacity:1;"/>
<stop offset="0.612378" style="stop-color:rgb(18.039216%,86.666667%,18.039216%);stop-opacity:1;"/>
<stop offset="1" style="stop-color:rgb(11.372549%,74.117647%,11.372549%);stop-opacity:1;"/>
</linearGradient>
<linearGradient id="linear28" gradientUnits="userSpaceOnUse" x1="111.83297" y1="353.7692" x2="157.99779" y2="354.18417" gradientTransform="matrix(0.980988,0,0,0.980988,278.14949,-160.69698)">
<stop offset="0" style="stop-color:rgb(11.372549%,41.568627%,11.372549%);stop-opacity:1;"/>
<stop offset="0.612378" style="stop-color:rgb(18.039216%,86.666667%,18.039216%);stop-opacity:1;"/>
<stop offset="1" style="stop-color:rgb(11.372549%,74.117647%,11.372549%);stop-opacity:1;"/>
</linearGradient>
<linearGradient id="linear29" gradientUnits="userSpaceOnUse" x1="111.83297" y1="353.7692" x2="157.99779" y2="354.18417" gradientTransform="matrix(0.980988,0,0,0.980988,335.01728,-177.10115)">
<stop offset="0" style="stop-color:rgb(11.372549%,41.568627%,11.372549%);stop-opacity:1;"/>
<stop offset="0.612378" style="stop-color:rgb(18.039216%,86.666667%,18.039216%);stop-opacity:1;"/>
<stop offset="1" style="stop-color:rgb(11.372549%,74.117647%,11.372549%);stop-opacity:1;"/>
</linearGradient>
<linearGradient id="linear30" gradientUnits="userSpaceOnUse" x1="111.83297" y1="353.7692" x2="157.99779" y2="354.18417" gradientTransform="matrix(1,0,0,1,19.377428,190.442)">
<stop offset="0" style="stop-color:rgb(87.843137%,40.392157%,0%);stop-opacity:1;"/>
<stop offset="0.612378" style="stop-color:rgb(92.54902%,87.058824%,22.352941%);stop-opacity:1;"/>
<stop offset="1" style="stop-color:rgb(98.039216%,66.27451%,0%);stop-opacity:1;"/>
</linearGradient>
<linearGradient id="linear31" gradientUnits="userSpaceOnUse" x1="111.83297" y1="353.7692" x2="157.99779" y2="354.18417" gradientTransform="matrix(1.023615,0,0,1.023615,63.769688,203.14592)">
<stop offset="0" style="stop-color:rgb(87.843137%,40.392157%,0%);stop-opacity:1;"/>
<stop offset="0.612378" style="stop-color:rgb(92.54902%,87.058824%,22.352941%);stop-opacity:1;"/>
<stop offset="1" style="stop-color:rgb(98.039216%,66.27451%,0%);stop-opacity:1;"/>
</linearGradient>
</defs>
<g id="surface1">
<path style="fill-rule:nonzero;fill:rgb(87.843137%,14.117647%,0%);fill-opacity:1;stroke-width:0.6;stroke-linecap:round;stroke-linejoin:round;stroke:rgb(0%,0%,0%);stroke-opacity:1;stroke-miterlimit:4;" d="M 105.092885 633.253124 L 106.109077 713.471874 L 198.574233 747.023632 L 196.244428 666.67207 Z M 105.092885 633.253124 " transform="matrix(0.472813,0,0,0.470588,-32.986183,-143.630376)"/>
<path style="fill-rule:nonzero;fill:rgb(100%,25.098039%,10.980392%);fill-opacity:1;stroke-width:0.6;stroke-linecap:round;stroke-linejoin:round;stroke:rgb(0%,0%,0%);stroke-opacity:1;stroke-miterlimit:4;" d="M 197.59935 746.085644 L 429.158803 682.783886 L 428.927475 602.017284 L 196.244428 666.67207 Z M 197.59935 746.085644 " transform="matrix(0.472813,0,0,0.470588,-32.986183,-143.630376)"/>
<path style="fill-rule:nonzero;fill:rgb(66.666667%,0%,0%);fill-opacity:1;stroke-width:0.6;stroke-linecap:round;stroke-linejoin:round;stroke:rgb(0%,0%,0%);stroke-opacity:1;stroke-miterlimit:4;" d="M 105.365522 633.236523 L 324.722417 572.864941 L 428.646577 601.96748 L 195.566967 666.67207 Z M 105.365522 633.236523 " transform="matrix(0.472813,0,0,0.470588,-32.986183,-143.630376)"/>
<path style="fill-rule:nonzero;fill:url(#linear0);stroke-width:0.25;stroke-linecap:butt;stroke-linejoin:miter;stroke:rgb(0%,0%,0%);stroke-opacity:1;stroke-miterlimit:4;" d="M 111.625667 347.858252 L 111.73307 365.389502 C 111.73307 365.389502 119.821292 370.57749 134.444535 370.57749 C 151.050589 370.57749 157.684749 364.036475 157.684749 364.036475 L 157.478206 347.542822 Z M 111.625667 347.858252 " transform="matrix(0.472813,0,0,0.470588,-23.121843,-18.037845)"/>
<path style="fill-rule:nonzero;fill:rgb(66.666667%,0%,0%);fill-opacity:1;stroke-width:0.25;stroke-linecap:butt;stroke-linejoin:miter;stroke:rgb(0%,0%,0%);stroke-opacity:1;stroke-miterlimit:4;" d="M 157.502992 347.493018 C 157.502992 350.4896 147.233675 352.921729 134.56846 352.921729 C 121.903245 352.921729 111.633929 350.4896 111.633929 347.493018 C 111.633929 344.496436 121.903245 342.064307 134.56846 342.064307 C 147.068441 342.064307 157.263402 344.430029 157.49473 347.393408 L 157.379066 347.683936 Z M 157.502992 347.493018 " transform="matrix(0.472813,0,0,0.470588,-23.121843,-18.037845)"/>
<path style="fill-rule:nonzero;fill:url(#linear1);stroke-width:0.25;stroke-linecap:butt;stroke-linejoin:miter;stroke:rgb(0%,0%,0%);stroke-opacity:1;stroke-miterlimit:4;" d="M 111.623181 347.857812 L 111.728106 365.390086 C 111.728106 365.390086 119.815371 370.571918 134.448318 370.571918 C 151.050618 370.571918 157.685081 364.035835 157.685081 364.035835 L 157.475232 347.54155 Z M 111.623181 347.857812 " transform="matrix(0.483978,0,0,0.481701,-2.132593,-12.059529)"/>
<path style="fill-rule:nonzero;fill:rgb(66.666667%,0%,0%);fill-opacity:1;stroke-width:0.25;stroke-linecap:butt;stroke-linejoin:miter;stroke:rgb(0%,0%,0%);stroke-opacity:1;stroke-miterlimit:4;" d="M 157.499446 347.492895 C 157.499446 350.485221 147.232977 352.918006 134.569385 352.918006 C 121.897721 352.918006 111.631252 350.485221 111.631252 347.492895 C 111.631252 344.492459 121.897721 342.059674 134.569385 342.059674 C 147.071554 342.059674 157.265383 344.435694 157.499446 347.387474 L 157.378379 347.687517 Z M 157.499446 347.492895 " transform="matrix(0.483978,0,0,0.481701,-2.132593,-12.059529)"/>
<path style="fill-rule:nonzero;fill:url(#linear2);stroke-width:0.25;stroke-linecap:butt;stroke-linejoin:miter;stroke:rgb(0%,0%,0%);stroke-opacity:1;stroke-miterlimit:4;" d="M 111.62743 347.859597 L 111.732355 365.39187 C 111.732355 365.39187 119.81962 370.573703 134.452567 370.573703 C 151.046796 370.573703 157.68933 364.037619 157.68933 364.037619 L 157.479481 347.543334 Z M 111.62743 347.859597 " transform="matrix(0.483978,0,0,0.481701,25.013788,-19.779139)"/>
<path style="fill-rule:nonzero;fill:rgb(66.666667%,0%,0%);fill-opacity:1;stroke-width:0.25;stroke-linecap:butt;stroke-linejoin:miter;stroke:rgb(0%,0%,0%);stroke-opacity:1;stroke-miterlimit:4;" d="M 157.503695 347.494679 C 157.503695 350.487005 147.229155 352.91979 134.565562 352.91979 C 121.90197 352.91979 111.635501 350.487005 111.635501 347.494679 C 111.635501 344.494243 121.90197 342.061458 134.565562 342.061458 C 147.067732 342.061458 157.269632 344.429369 157.495623 347.389258 L 157.382628 347.681192 Z M 157.503695 347.494679 " transform="matrix(0.483978,0,0,0.481701,25.013788,-19.779139)"/>
<path style="fill-rule:nonzero;fill:url(#linear3);stroke-width:0.25;stroke-linecap:butt;stroke-linejoin:miter;stroke:rgb(0%,0%,0%);stroke-opacity:1;stroke-miterlimit:4;" d="M 111.621979 347.852967 L 111.730982 365.38431 C 111.730982 365.38431 119.822348 370.57379 134.445502 370.57379 C 151.047476 370.57379 157.688266 364.036394 157.688266 364.036394 L 157.478645 347.541261 Z M 111.621979 347.852967 " transform="matrix(0.465871,0,0,0.463678,54.439987,-20.819271)"/>
<path style="fill-rule:nonzero;fill:rgb(66.666667%,0%,0%);fill-opacity:1;stroke-width:0.25;stroke-linecap:butt;stroke-linejoin:miter;stroke:rgb(0%,0%,0%);stroke-opacity:1;stroke-miterlimit:4;" d="M 157.5038 347.490714 C 157.5038 350.489829 147.232376 352.91608 134.562889 352.91608 C 121.901787 352.91608 111.630364 350.489829 111.630364 347.490714 C 111.630364 344.491599 121.901787 342.065349 134.562889 342.065349 C 147.064679 342.065349 157.269024 344.432628 157.495415 347.389621 L 157.378027 347.684477 Z M 157.5038 347.490714 " transform="matrix(0.465871,0,0,0.463678,54.439987,-20.819271)"/>
<path style="fill-rule:nonzero;fill:url(#linear4);stroke-width:0.246329;stroke-linecap:butt;stroke-linejoin:miter;stroke:rgb(0%,0%,0%);stroke-opacity:1;stroke-miterlimit:4;" d="M 321.605781 153.107848 L 321.704921 170.381773 C 321.704921 170.381773 329.67748 175.495055 344.085917 175.495055 C 360.44412 175.495055 366.987402 169.053648 366.987402 169.053648 L 366.780859 152.800719 Z M 321.605781 153.107848 " transform="matrix(0.472813,0,0,0.470588,-18.985252,60.187529)"/>
<path style="fill-rule:nonzero;fill:rgb(66.666667%,0%,0%);fill-opacity:1;stroke-width:0.246329;stroke-linecap:butt;stroke-linejoin:miter;stroke:rgb(0%,0%,0%);stroke-opacity:1;stroke-miterlimit:4;" d="M 366.805644 152.750914 C 366.805644 155.705992 356.685038 158.096617 344.209843 158.096617 C 331.726386 158.096617 321.605781 155.705992 321.605781 152.750914 C 321.605781 149.795836 331.726386 147.405211 344.209843 147.405211 C 356.528066 147.405211 366.574316 149.73773 366.797382 152.651305 L 366.681718 152.941832 Z M 366.805644 152.750914 " transform="matrix(0.472813,0,0,0.470588,-18.985252,60.187529)"/>
<path style="fill-rule:nonzero;fill:url(#linear5);stroke-width:0.25;stroke-linecap:butt;stroke-linejoin:miter;stroke:rgb(0%,0%,0%);stroke-opacity:1;stroke-miterlimit:4;" d="M 111.628485 347.852819 L 111.727626 365.384069 C 111.727626 365.384069 119.815849 370.572057 134.447353 370.572057 C 151.045146 370.572057 157.687568 364.039342 157.687568 364.039342 L 157.481025 347.54569 Z M 111.628485 347.852819 " transform="matrix(0.472813,0,0,0.470588,4.283074,-25.500132)"/>
<path style="fill-rule:nonzero;fill:rgb(66.666667%,0%,0%);fill-opacity:1;stroke-width:0.25;stroke-linecap:butt;stroke-linejoin:miter;stroke:rgb(0%,0%,0%);stroke-opacity:1;stroke-miterlimit:4;" d="M 157.497548 347.487585 C 157.497548 350.492467 147.236493 352.916296 134.563017 352.916296 C 121.897802 352.916296 111.628485 350.492467 111.628485 347.487585 C 111.628485 344.491003 121.897802 342.067175 134.563017 342.067175 C 147.071259 342.067175 157.26622 344.432897 157.497548 347.387975 L 157.381884 347.686803 Z M 157.497548 347.487585 " transform="matrix(0.472813,0,0,0.470588,4.283074,-25.500132)"/>
<path style="fill-rule:nonzero;fill:url(#linear6);stroke-width:0.25;stroke-linecap:butt;stroke-linejoin:miter;stroke:rgb(0%,0%,0%);stroke-opacity:1;stroke-miterlimit:4;" d="M 111.626977 347.85297 L 111.728039 365.385512 C 111.728039 365.385512 119.821419 370.572505 134.450141 370.572505 C 151.049572 370.572505 157.685976 364.04011 157.685976 364.04011 L 157.47543 347.548351 Z M 111.626977 347.85297 " transform="matrix(0.463824,0,0,0.461642,32.431731,-29.645887)"/>
<path style="fill-rule:nonzero;fill:rgb(66.666667%,0%,0%);fill-opacity:1;stroke-width:0.25;stroke-linecap:butt;stroke-linejoin:miter;stroke:rgb(0%,0%,0%);stroke-opacity:1;stroke-miterlimit:4;" d="M 157.500696 347.489119 C 157.500696 350.484544 147.234482 352.9215 134.568047 352.9215 C 121.901612 352.9215 111.635398 350.484544 111.635398 347.489119 C 111.635398 344.493695 121.901612 342.065201 134.568047 342.065201 C 147.066046 342.065201 157.264884 344.434463 157.500696 347.38758 L 157.38279 347.683737 Z M 157.500696 347.489119 " transform="matrix(0.463824,0,0,0.461642,32.431731,-29.645887)"/>
<path style="fill-rule:nonzero;fill:url(#linear7);stroke-width:0.25;stroke-linecap:butt;stroke-linejoin:miter;stroke:rgb(0%,0%,0%);stroke-opacity:1;stroke-miterlimit:4;" d="M 111.624551 347.854832 L 111.725613 365.387374 C 111.725613 365.387374 119.818993 370.574366 134.447715 370.574366 C 151.047146 370.574366 157.68355 364.041971 157.68355 364.041971 L 157.481426 347.541751 Z M 111.624551 347.854832 " transform="matrix(0.463824,0,0,0.461642,59.319575,-37.365496)"/>
<path style="fill-rule:nonzero;fill:rgb(66.666667%,0%,0%);fill-opacity:1;stroke-width:0.25;stroke-linecap:butt;stroke-linejoin:miter;stroke:rgb(0%,0%,0%);stroke-opacity:1;stroke-miterlimit:4;" d="M 157.49827 347.490981 C 157.49827 350.486406 147.232056 352.9149 134.565621 352.9149 C 121.899186 352.9149 111.632972 350.486406 111.632972 347.490981 C 111.632972 344.495556 121.899186 342.067062 134.565621 342.067062 C 147.072042 342.067062 157.27088 344.436325 157.49827 347.389441 L 157.380364 347.685599 Z M 157.49827 347.490981 " transform="matrix(0.463824,0,0,0.461642,59.319575,-37.365496)"/>
<path style="fill-rule:nonzero;fill:rgb(98.039216%,66.27451%,0%);fill-opacity:1;stroke-width:0.6;stroke-linecap:round;stroke-linejoin:round;stroke:rgb(0%,0%,0%);stroke-opacity:1;stroke-miterlimit:4;" d="M 102.969624 554.58662 L 103.67187 633.84248 L 195.178667 667.078808 L 194.435112 587.997265 Z M 102.969624 554.58662 " transform="matrix(0.472813,0,0,0.470588,-32.986183,-143.630376)"/>
<path style="fill-rule:nonzero;fill:rgb(98.823529%,82.352941%,0%);fill-opacity:1;stroke-width:0.6;stroke-linecap:round;stroke-linejoin:round;stroke:rgb(0%,0%,0%);stroke-opacity:1;stroke-miterlimit:4;" d="M 196.120503 666.77998 L 427.663432 603.378612 L 427.02728 522.653515 L 194.757319 590.230175 Z M 196.120503 666.77998 " transform="matrix(0.472813,0,0,0.470588,-32.986183,-143.630376)"/>
<path style="fill-rule:nonzero;fill:rgb(98.039216%,66.27451%,0%);fill-opacity:1;stroke-width:0.6;stroke-linecap:round;stroke-linejoin:round;stroke:rgb(0%,0%,0%);stroke-opacity:1;stroke-miterlimit:4;" d="M 103.24226 554.246288 L 323.87146 493.235546 L 426.663764 522.653515 L 194.079858 590.230175 Z M 103.24226 554.246288 " transform="matrix(0.472813,0,0,0.470588,-32.986183,-143.630376)"/>
<path style="fill-rule:nonzero;fill:url(#linear8);stroke-width:0.255904;stroke-linecap:butt;stroke-linejoin:miter;stroke:rgb(0%,0%,0%);stroke-opacity:1;stroke-miterlimit:4;" d="M 235.446284 542.816112 L 235.553686 560.762402 C 235.553686 560.762402 243.831928 566.066601 258.810424 566.066601 C 275.796518 566.066601 282.595913 559.376171 282.595913 559.376171 L 282.381108 542.492382 Z M 235.446284 542.816112 " transform="matrix(0.472813,0,0,0.470588,-32.986183,-143.630376)"/>
<path style="fill-rule:nonzero;fill:rgb(98.039216%,66.27451%,0%);fill-opacity:1;stroke-width:0.255904;stroke-linecap:butt;stroke-linejoin:miter;stroke:rgb(0%,0%,0%);stroke-opacity:1;stroke-miterlimit:4;" d="M 282.405893 542.442577 C 282.405893 545.505566 271.896987 547.9958 258.926088 547.9958 C 245.963452 547.9958 235.454546 545.505566 235.454546 542.442577 C 235.454546 539.371288 245.963452 536.881054 258.926088 536.881054 C 271.723491 536.881054 282.166303 539.304882 282.397631 542.334667 L 282.281967 542.633495 Z M 282.405893 542.442577 " transform="matrix(0.472813,0,0,0.470588,-32.986183,-143.630376)"/>
<path style="fill-rule:nonzero;fill:url(#linear9);stroke-width:0.246329;stroke-linecap:butt;stroke-linejoin:miter;stroke:rgb(0%,0%,0%);stroke-opacity:1;stroke-miterlimit:4;" d="M 293.410503 527.27705 L 293.509643 544.550976 C 293.509643 544.550976 301.482202 549.664257 315.898901 549.664257 C 332.248842 549.664257 338.792124 543.222851 338.792124 543.222851 L 338.585581 526.969921 Z M 293.410503 527.27705 " transform="matrix(0.472813,0,0,0.470588,-32.986183,-143.630376)"/>
<path style="fill-rule:nonzero;fill:rgb(98.039216%,66.27451%,0%);fill-opacity:1;stroke-width:0.246329;stroke-linecap:butt;stroke-linejoin:miter;stroke:rgb(0%,0%,0%);stroke-opacity:1;stroke-miterlimit:4;" d="M 338.610366 526.920116 C 338.610366 529.875195 328.48976 532.26582 316.014565 532.26582 C 303.531108 532.26582 293.410503 529.875195 293.410503 526.920116 C 293.410503 523.965038 303.531108 521.574413 316.014565 521.574413 C 328.332788 521.574413 338.379038 523.906933 338.602104 526.820507 L 338.48644 527.111034 Z M 338.610366 526.920116 " transform="matrix(0.472813,0,0,0.470588,-32.986183,-143.630376)"/>
<path style="fill-rule:nonzero;fill:url(#linear10);stroke-width:0.246329;stroke-linecap:butt;stroke-linejoin:miter;stroke:rgb(0%,0%,0%);stroke-opacity:1;stroke-miterlimit:4;" d="M 349.730639 509.779003 L 349.82978 527.052929 C 349.82978 527.052929 357.802338 532.16621 372.219038 532.16621 C 388.568979 532.16621 395.11226 525.724804 395.11226 525.724804 L 394.905717 509.471874 Z M 349.730639 509.779003 " transform="matrix(0.472813,0,0,0.470588,-32.986183,-143.630376)"/>
<path style="fill-rule:nonzero;fill:rgb(98.039216%,66.27451%,0%);fill-opacity:1;stroke-width:0.246329;stroke-linecap:butt;stroke-linejoin:miter;stroke:rgb(0%,0%,0%);stroke-opacity:1;stroke-miterlimit:4;" d="M 394.930503 509.42207 C 394.930503 512.377148 384.809897 514.767773 372.334702 514.767773 C 359.851245 514.767773 349.730639 512.377148 349.730639 509.42207 C 349.730639 506.466991 359.851245 504.076366 372.334702 504.076366 C 384.652924 504.076366 394.699174 506.408886 394.922241 509.32246 L 394.806577 509.612987 Z M 394.930503 509.42207 " transform="matrix(0.472813,0,0,0.470588,-32.986183,-143.630376)"/>
<path style="fill-rule:nonzero;fill:url(#linear11);stroke-width:0.25;stroke-linecap:butt;stroke-linejoin:miter;stroke:rgb(0%,0%,0%);stroke-opacity:1;stroke-miterlimit:4;" d="M 188.965854 522.437695 L 189.064995 539.968945 C 189.064995 539.968945 197.161479 545.156933 211.784721 545.156933 C 228.382514 545.156933 235.024936 538.624218 235.024936 538.624218 L 234.818393 522.130566 Z M 188.965854 522.437695 " transform="matrix(0.472813,0,0,0.470588,-32.986183,-143.630376)"/>
<path style="fill-rule:nonzero;fill:rgb(98.039216%,66.27451%,0%);fill-opacity:1;stroke-width:0.25;stroke-linecap:butt;stroke-linejoin:miter;stroke:rgb(0%,0%,0%);stroke-opacity:1;stroke-miterlimit:4;" d="M 234.843178 522.07246 C 234.843178 525.069042 224.573862 527.501171 211.908647 527.501171 C 199.235171 527.501171 188.974116 525.069042 188.974116 522.07246 C 188.974116 519.075878 199.235171 516.65205 211.908647 516.65205 C 224.408628 516.65205 234.603588 519.017773 234.834917 521.972851 L 234.719253 522.271679 Z M 234.843178 522.07246 " transform="matrix(0.472813,0,0,0.470588,-32.986183,-143.630376)"/>
<path style="fill-rule:nonzero;fill:url(#linear12);stroke-width:0.245247;stroke-linecap:butt;stroke-linejoin:miter;stroke:rgb(0%,0%,0%);stroke-opacity:1;stroke-miterlimit:4;" d="M 246.376538 507.014843 L 246.475678 524.214062 C 246.475678 524.214062 254.41519 529.302441 268.765796 529.302441 C 285.049643 529.302441 291.559878 522.894237 291.559878 522.894237 L 291.361596 506.716015 Z M 246.376538 507.014843 " transform="matrix(0.472813,0,0,0.470588,-32.986183,-143.630376)"/>
<path style="fill-rule:nonzero;fill:rgb(98.039216%,66.27451%,0%);fill-opacity:1;stroke-width:0.245247;stroke-linecap:butt;stroke-linejoin:miter;stroke:rgb(0%,0%,0%);stroke-opacity:1;stroke-miterlimit:4;" d="M 291.37812 506.657909 C 291.37812 509.596386 281.307085 511.987011 268.88146 511.987011 C 256.455835 511.987011 246.384799 509.596386 246.384799 506.657909 C 246.384799 503.719433 256.455835 501.337109 268.88146 501.337109 C 281.14185 501.337109 291.146792 503.661327 291.37812 506.5583 L 291.262456 506.848827 Z M 291.37812 506.657909 " transform="matrix(0.472813,0,0,0.470588,-32.986183,-143.630376)"/>
<path style="fill-rule:nonzero;fill:url(#linear13);stroke-width:0.245247;stroke-linecap:butt;stroke-linejoin:miter;stroke:rgb(0%,0%,0%);stroke-opacity:1;stroke-miterlimit:4;" d="M 303.241948 490.612499 L 303.34935 507.811718 C 303.34935 507.811718 311.2806 512.900097 325.631206 512.900097 C 341.915053 512.900097 348.433549 506.491894 348.433549 506.491894 L 348.227006 490.30537 Z M 303.241948 490.612499 " transform="matrix(0.472813,0,0,0.470588,-32.986183,-143.630376)"/>
<path style="fill-rule:nonzero;fill:rgb(98.039216%,66.27451%,0%);fill-opacity:1;stroke-width:0.245247;stroke-linecap:butt;stroke-linejoin:miter;stroke:rgb(0%,0%,0%);stroke-opacity:1;stroke-miterlimit:4;" d="M 348.251792 490.255566 C 348.251792 493.194042 338.172495 495.576366 325.74687 495.576366 C 313.321245 495.576366 303.25021 493.194042 303.25021 490.255566 C 303.25021 487.317089 313.321245 484.934765 325.74687 484.934765 C 338.015522 484.934765 348.020464 487.258984 348.24353 490.155956 L 348.127866 490.446484 Z M 348.251792 490.255566 " transform="matrix(0.472813,0,0,0.470588,-32.986183,-143.630376)"/>
<path style="fill-rule:nonzero;fill:rgb(10.588235%,10.980392%,80.784314%);fill-opacity:1;stroke-width:0.6;stroke-linecap:round;stroke-linejoin:round;stroke:rgb(0%,0%,0%);stroke-opacity:1;stroke-miterlimit:4;" d="M 168.17937 458.031933 L 169.195561 538.242382 L 261.668979 571.79414 L 259.330913 491.450878 Z M 168.17937 458.031933 " transform="matrix(0.472813,0,0,0.470588,-32.986183,-143.630376)"/>
<path style="fill-rule:nonzero;fill:rgb(20%,20.392157%,89.411765%);fill-opacity:1;stroke-width:0.6;stroke-linecap:round;stroke-linejoin:round;stroke:rgb(0%,0%,0%);stroke-opacity:1;stroke-miterlimit:4;" d="M 260.685835 570.864452 L 492.245288 507.554394 L 492.01396 426.796093 L 259.330913 491.450878 Z M 260.685835 570.864452 " transform="matrix(0.472813,0,0,0.470588,-32.986183,-143.630376)"/>
<path style="fill-rule:nonzero;fill:rgb(10.588235%,10.980392%,80.784314%);fill-opacity:1;stroke-width:0.6;stroke-linecap:round;stroke-linejoin:round;stroke:rgb(0%,0%,0%);stroke-opacity:1;stroke-miterlimit:4;" d="M 168.452006 458.015331 L 387.808901 397.635448 L 491.733061 426.746288 L 258.653452 491.450878 Z M 168.452006 458.015331 " transform="matrix(0.472813,0,0,0.470588,-32.986183,-143.630376)"/>
<path style="fill-rule:nonzero;fill:url(#linear14);stroke-width:0.25;stroke-linecap:butt;stroke-linejoin:miter;stroke:rgb(0%,0%,0%);stroke-opacity:1;stroke-miterlimit:4;" d="M 111.626728 347.853961 L 111.731653 365.386235 C 111.731653 365.386235 119.818918 370.576177 134.451865 370.576177 C 151.046094 370.576177 157.688628 364.040093 157.688628 364.040093 L 157.478779 347.545809 Z M 111.626728 347.853961 " transform="matrix(0.483978,0,0,0.481701,54.842252,-102.237362)"/>
<path style="fill-rule:nonzero;fill:rgb(66.666667%,0%,0%);fill-opacity:1;stroke-width:0.25;stroke-linecap:butt;stroke-linejoin:miter;stroke:rgb(0%,0%,0%);stroke-opacity:1;stroke-miterlimit:4;" d="M 157.502993 347.489044 C 157.502993 350.489479 147.236524 352.914155 134.56486 352.914155 C 121.901268 352.914155 111.634799 350.489479 111.634799 347.489044 C 111.634799 344.496718 121.901268 342.063932 134.56486 342.063932 C 147.06703 342.063932 157.26893 344.431843 157.494921 347.391732 L 157.381926 347.683666 Z M 157.502993 347.489044 " transform="matrix(0.483978,0,0,0.481701,54.842252,-102.237362)"/>
<path style="fill-rule:nonzero;fill:url(#linear15);stroke-width:0.25;stroke-linecap:butt;stroke-linejoin:miter;stroke:rgb(0%,0%,0%);stroke-opacity:1;stroke-miterlimit:4;" d="M 111.629625 347.855537 L 111.730243 365.386881 C 111.730243 365.386881 119.82161 370.576361 134.444763 370.576361 C 151.046738 370.576361 157.687528 364.038964 157.687528 364.038964 L 157.477907 347.543832 Z M 111.629625 347.855537 " transform="matrix(0.465871,0,0,0.463678,84.268456,-103.277494)"/>
<path style="fill-rule:nonzero;fill:rgb(66.666667%,0%,0%);fill-opacity:1;stroke-width:0.25;stroke-linecap:butt;stroke-linejoin:miter;stroke:rgb(0%,0%,0%);stroke-opacity:1;stroke-miterlimit:4;" d="M 157.503061 347.493285 C 157.503061 350.4924 147.231637 352.91865 134.570536 352.91865 C 121.901049 352.91865 111.629625 350.4924 111.629625 347.493285 C 111.629625 344.49417 121.901049 342.067919 134.570536 342.067919 C 147.063941 342.067919 157.268286 344.435198 157.494676 347.392191 L 157.377289 347.687048 Z M 157.503061 347.493285 " transform="matrix(0.465871,0,0,0.463678,84.268456,-103.277494)"/>
<path style="fill-rule:nonzero;fill:url(#linear16);stroke-width:0.246329;stroke-linecap:butt;stroke-linejoin:miter;stroke:rgb(0%,0%,0%);stroke-opacity:1;stroke-miterlimit:4;" d="M 414.304233 410.999706 L 414.403374 428.273632 C 414.403374 428.273632 422.375932 433.386913 436.792631 433.386913 C 453.142573 433.386913 459.685854 426.945507 459.685854 426.945507 L 459.479311 410.692577 Z M 414.304233 410.999706 " transform="matrix(0.472813,0,0,0.470588,-32.986183,-143.630376)"/>
<path style="fill-rule:nonzero;fill:rgb(10.588235%,10.980392%,80.784314%);fill-opacity:1;stroke-width:0.246329;stroke-linecap:butt;stroke-linejoin:miter;stroke:rgb(0%,0%,0%);stroke-opacity:1;stroke-miterlimit:4;" d="M 459.504096 410.642773 C 459.504096 413.597851 449.383491 415.988476 436.908296 415.988476 C 424.424838 415.988476 414.304233 413.597851 414.304233 410.642773 C 414.304233 407.687695 424.424838 405.29707 436.908296 405.29707 C 449.226518 405.29707 459.272768 407.629589 459.495835 410.543163 L 459.380171 410.833691 Z M 459.504096 410.642773 " transform="matrix(0.472813,0,0,0.470588,-32.986183,-143.630376)"/>
<path style="fill-rule:nonzero;fill:url(#linear17);stroke-width:0.25;stroke-linecap:butt;stroke-linejoin:miter;stroke:rgb(0%,0%,0%);stroke-opacity:1;stroke-miterlimit:4;" d="M 111.627768 347.855352 L 111.726908 365.386602 C 111.726908 365.386602 119.815131 370.57459 134.446635 370.57459 C 151.044428 370.57459 157.68685 364.041875 157.68685 364.041875 L 157.480307 347.548223 Z M 111.627768 347.855352 " transform="matrix(0.472813,0,0,0.470588,34.111539,-107.958355)"/>
<path style="fill-rule:nonzero;fill:rgb(66.666667%,0%,0%);fill-opacity:1;stroke-width:0.25;stroke-linecap:butt;stroke-linejoin:miter;stroke:rgb(0%,0%,0%);stroke-opacity:1;stroke-miterlimit:4;" d="M 157.505092 347.490117 C 157.505092 350.486699 147.235776 352.918828 134.570561 352.918828 C 121.897084 352.918828 111.627768 350.486699 111.627768 347.490117 C 111.627768 344.493535 121.897084 342.061406 134.570561 342.061406 C 147.070541 342.061406 157.265502 344.43543 157.49683 347.390508 L 157.381166 347.681035 Z M 157.505092 347.490117 " transform="matrix(0.472813,0,0,0.470588,34.111539,-107.958355)"/>
<path style="fill-rule:nonzero;fill:url(#linear18);stroke-width:0.25;stroke-linecap:butt;stroke-linejoin:miter;stroke:rgb(0%,0%,0%);stroke-opacity:1;stroke-miterlimit:4;" d="M 111.626235 347.855552 L 111.727297 365.388094 C 111.727297 365.388094 119.820677 370.575086 134.4494 370.575086 C 151.04883 370.575086 157.685234 364.042691 157.685234 364.042691 L 157.48311 347.542471 Z M 111.626235 347.855552 " transform="matrix(0.463824,0,0,0.461642,62.2602,-112.10411)"/>
<path style="fill-rule:nonzero;fill:rgb(66.666667%,0%,0%);fill-opacity:1;stroke-width:0.25;stroke-linecap:butt;stroke-linejoin:miter;stroke:rgb(0%,0%,0%);stroke-opacity:1;stroke-miterlimit:4;" d="M 157.499954 347.491701 C 157.499954 350.487126 147.233741 352.91562 134.567305 352.91562 C 121.90087 352.91562 111.634657 350.487126 111.634657 347.491701 C 111.634657 344.496276 121.90087 342.067782 134.567305 342.067782 C 147.065304 342.067782 157.264143 344.437045 157.499954 347.390161 L 157.382048 347.686319 Z M 157.499954 347.491701 " transform="matrix(0.463824,0,0,0.461642,62.2602,-112.10411)"/>
<path style="fill-rule:nonzero;fill:url(#linear19);stroke-width:0.25;stroke-linecap:butt;stroke-linejoin:miter;stroke:rgb(0%,0%,0%);stroke-opacity:1;stroke-miterlimit:4;" d="M 111.623809 347.857414 L 111.733293 365.389956 C 111.733293 365.389956 119.818251 370.576948 134.446974 370.576948 C 151.046405 370.576948 157.682808 364.036091 157.682808 364.036091 L 157.480684 347.544333 Z M 111.623809 347.857414 " transform="matrix(0.463824,0,0,0.461642,89.148044,-119.82372)"/>
<path style="fill-rule:nonzero;fill:rgb(66.666667%,0%,0%);fill-opacity:1;stroke-width:0.25;stroke-linecap:butt;stroke-linejoin:miter;stroke:rgb(0%,0%,0%);stroke-opacity:1;stroke-miterlimit:4;" d="M 157.497528 347.493563 C 157.497528 350.488987 147.231315 352.917481 134.564879 352.917481 C 121.898444 352.917481 111.632231 350.488987 111.632231 347.493563 C 111.632231 344.489676 121.898444 342.061182 134.564879 342.061182 C 147.0713 342.061182 157.270138 344.430445 157.497528 347.392023 L 157.379622 347.688181 Z M 157.497528 347.493563 " transform="matrix(0.463824,0,0,0.461642,89.148044,-119.82372)"/>
<path style="fill-rule:nonzero;fill:url(#linear20);stroke-width:0.25;stroke-linecap:butt;stroke-linejoin:miter;stroke:rgb(0%,0%,0%);stroke-opacity:1;stroke-miterlimit:4;" d="M 111.624946 347.852484 L 111.732348 365.392035 C 111.732348 365.392035 119.820571 370.571722 134.452075 370.571722 C 151.049868 370.571722 157.684028 364.039007 157.684028 364.039007 L 157.477485 347.545355 Z M 111.624946 347.852484 " transform="matrix(0.472813,0,0,0.470588,6.706623,-100.496068)"/>
<path style="fill-rule:nonzero;fill:rgb(66.666667%,0%,0%);fill-opacity:1;stroke-width:0.25;stroke-linecap:butt;stroke-linejoin:miter;stroke:rgb(0%,0%,0%);stroke-opacity:1;stroke-miterlimit:4;" d="M 157.50227 347.487249 C 157.50227 350.492132 147.232954 352.91596 134.567739 352.91596 C 121.902524 352.91596 111.633208 350.492132 111.633208 347.487249 C 111.633208 344.490667 121.902524 342.066839 134.567739 342.066839 C 147.06772 342.066839 157.26268 344.432562 157.494009 347.38764 L 157.378345 347.686468 Z M 157.50227 347.487249 " transform="matrix(0.472813,0,0,0.470588,6.706623,-100.496068)"/>
<path style="fill-rule:nonzero;fill:url(#linear21);stroke-width:0.25;stroke-linecap:butt;stroke-linejoin:miter;stroke:rgb(0%,0%,0%);stroke-opacity:1;stroke-miterlimit:4;" d="M 111.622473 347.852173 L 111.727398 365.384447 C 111.727398 365.384447 119.814663 370.574389 134.44761 370.574389 C 151.04991 370.574389 157.684374 364.038305 157.684374 364.038305 L 157.482595 347.544021 Z M 111.622473 347.852173 " transform="matrix(0.483978,0,0,0.481701,27.695874,-94.517751)"/>
<path style="fill-rule:nonzero;fill:rgb(66.666667%,0%,0%);fill-opacity:1;stroke-width:0.25;stroke-linecap:butt;stroke-linejoin:miter;stroke:rgb(0%,0%,0%);stroke-opacity:1;stroke-miterlimit:4;" d="M 157.498738 347.487256 C 157.498738 350.487691 147.232269 352.920476 134.568677 352.920476 C 121.897013 352.920476 111.630544 350.487691 111.630544 347.487256 C 111.630544 344.49493 121.897013 342.062144 134.568677 342.062144 C 147.070846 342.062144 157.264675 344.430055 157.498738 347.389944 L 157.377671 347.681878 Z M 157.498738 347.487256 " transform="matrix(0.483978,0,0,0.481701,27.695874,-94.517751)"/>
<path style="fill-rule:nonzero;fill:rgb(12.54902%,59.215686%,12.54902%);fill-opacity:1;stroke-width:0.6;stroke-linecap:round;stroke-linejoin:round;stroke:rgb(0%,0%,0%);stroke-opacity:1;stroke-miterlimit:4;" d="M 167.123275 377.221182 L 168.139466 457.431631 L 260.604622 490.983389 L 258.274818 410.631826 Z M 167.123275 377.221182 " transform="matrix(0.472813,0,0,0.470588,-63.916534,-135.051007)"/>
<path style="fill-rule:nonzero;fill:rgb(12.156863%,78.823529%,12.156863%);fill-opacity:1;stroke-width:0.6;stroke-linecap:round;stroke-linejoin:round;stroke:rgb(0%,0%,0%);stroke-opacity:1;stroke-miterlimit:4;" d="M 259.62974 490.045401 L 491.180931 426.743643 L 490.957865 345.985342 L 258.274818 410.631826 Z M 259.62974 490.045401 " transform="matrix(0.472813,0,0,0.470588,-63.916534,-135.051007)"/>
<path style="fill-rule:nonzero;fill:rgb(11.372549%,54.117647%,11.372549%);fill-opacity:1;stroke-width:0.6;stroke-linecap:round;stroke-linejoin:round;stroke:rgb(0%,0%,0%);stroke-opacity:1;stroke-miterlimit:4;" d="M 167.395911 377.19628 L 386.744544 316.824698 L 490.676966 345.935537 L 257.589095 410.631826 Z M 167.395911 377.19628 " transform="matrix(0.472813,0,0,0.470588,-63.916534,-135.051007)"/>
<path style="fill-rule:nonzero;fill:url(#linear22);stroke-width:0.25;stroke-linecap:butt;stroke-linejoin:miter;stroke:rgb(0%,0%,0%);stroke-opacity:1;stroke-miterlimit:4;" d="M 272.280648 211.824319 L 272.379789 229.355569 C 272.379789 229.355569 280.476273 234.543557 295.099515 234.543557 C 311.697308 234.543557 318.33973 228.010842 318.33973 228.010842 L 318.133187 211.51719 Z M 272.280648 211.824319 " transform="matrix(0.472813,0,0,0.470588,-100.683208,-65.932032)"/>
<path style="fill-rule:nonzero;fill:rgb(11.372549%,54.117647%,11.372549%);fill-opacity:1;stroke-width:0.25;stroke-linecap:butt;stroke-linejoin:miter;stroke:rgb(0%,0%,0%);stroke-opacity:1;stroke-miterlimit:4;" d="M 318.157972 211.459085 C 318.157972 214.455667 307.888656 216.887796 295.223441 216.887796 C 282.549964 216.887796 272.28891 214.455667 272.28891 211.459085 C 272.28891 208.462503 282.549964 206.030374 295.223441 206.030374 C 307.723421 206.030374 317.918382 208.404397 318.149711 211.359475 L 318.034046 211.658303 Z M 318.157972 211.459085 " transform="matrix(0.472813,0,0,0.470588,-100.683208,-65.932032)"/>
<path style="fill-rule:nonzero;fill:url(#linear23);stroke-width:0.255904;stroke-linecap:butt;stroke-linejoin:miter;stroke:rgb(0%,0%,0%);stroke-opacity:1;stroke-miterlimit:4;" d="M 319.306351 232.742288 L 319.413754 250.688577 C 319.413754 250.688577 327.691996 256.001077 342.670492 256.001077 C 359.656586 256.001077 366.45598 249.310647 366.45598 249.310647 L 366.241175 232.426858 Z M 319.306351 232.742288 " transform="matrix(0.472813,0,0,0.470588,-100.683208,-65.932032)"/>
<path style="fill-rule:nonzero;fill:rgb(11.372549%,54.117647%,11.372549%);fill-opacity:1;stroke-width:0.255904;stroke-linecap:butt;stroke-linejoin:miter;stroke:rgb(0%,0%,0%);stroke-opacity:1;stroke-miterlimit:4;" d="M 366.265961 232.368753 C 366.265961 235.440042 355.757054 237.930276 342.786156 237.930276 C 329.823519 237.930276 319.314613 235.440042 319.314613 232.368753 C 319.314613 229.305764 329.823519 226.81553 342.786156 226.81553 C 355.583558 226.81553 366.026371 229.239358 366.265961 232.269143 L 366.142035 232.567971 Z M 366.265961 232.368753 " transform="matrix(0.472813,0,0,0.470588,-100.683208,-65.932032)"/>
<path style="fill-rule:nonzero;fill:url(#linear24);stroke-width:0.255904;stroke-linecap:butt;stroke-linejoin:miter;stroke:rgb(0%,0%,0%);stroke-opacity:1;stroke-miterlimit:4;" d="M 376.725296 216.339944 L 376.824437 234.286233 C 376.824437 234.286233 385.110941 239.598733 400.081175 239.598733 C 417.075531 239.598733 423.874925 232.908303 423.874925 232.908303 L 423.660121 216.024514 Z M 376.725296 216.339944 " transform="matrix(0.472813,0,0,0.470588,-100.683208,-65.932032)"/>
<path style="fill-rule:nonzero;fill:rgb(11.372549%,54.117647%,11.372549%);fill-opacity:1;stroke-width:0.255904;stroke-linecap:butt;stroke-linejoin:miter;stroke:rgb(0%,0%,0%);stroke-opacity:1;stroke-miterlimit:4;" d="M 423.684906 215.966409 C 423.684906 219.037698 413.167738 221.519631 400.205101 221.519631 C 387.242464 221.519631 376.725296 219.037698 376.725296 215.966409 C 376.725296 212.89512 387.242464 210.413186 400.205101 210.413186 C 413.002504 210.413186 423.437054 212.837014 423.676644 215.866799 L 423.552718 216.165628 Z M 423.684906 215.966409 " transform="matrix(0.472813,0,0,0.470588,-100.683208,-65.932032)"/>
<path style="fill-rule:nonzero;fill:url(#linear25);stroke-width:0.246329;stroke-linecap:butt;stroke-linejoin:miter;stroke:rgb(0%,0%,0%);stroke-opacity:1;stroke-miterlimit:4;" d="M 434.681254 200.809182 L 434.788656 218.083108 C 434.788656 218.083108 442.752953 223.196389 457.169652 223.196389 C 473.527855 223.196389 480.071136 216.754983 480.071136 216.754983 L 479.864593 200.502053 Z M 434.681254 200.809182 " transform="matrix(0.472813,0,0,0.470588,-100.683208,-65.932032)"/>
<path style="fill-rule:nonzero;fill:rgb(11.372549%,54.117647%,11.372549%);fill-opacity:1;stroke-width:0.246329;stroke-linecap:butt;stroke-linejoin:miter;stroke:rgb(0%,0%,0%);stroke-opacity:1;stroke-miterlimit:4;" d="M 479.889379 200.452249 C 479.889379 203.399026 469.768773 205.797952 457.285316 205.797952 C 444.810121 205.797952 434.689515 203.399026 434.689515 200.452249 C 434.689515 197.497171 444.810121 195.098245 457.285316 195.098245 C 469.603539 195.098245 479.65805 197.439065 479.881117 200.352639 L 479.765453 200.634866 Z M 479.889379 200.452249 " transform="matrix(0.472813,0,0,0.470588,-100.683208,-65.932032)"/>
<path style="fill-rule:nonzero;fill:url(#linear26);stroke-width:0.246329;stroke-linecap:butt;stroke-linejoin:miter;stroke:rgb(0%,0%,0%);stroke-opacity:1;stroke-miterlimit:4;" d="M 491.00139 183.311135 L 491.108793 200.585061 C 491.108793 200.585061 499.073089 205.698342 513.489789 205.698342 C 529.847992 205.698342 536.391273 199.256936 536.391273 199.256936 L 536.18473 183.004006 Z M 491.00139 183.311135 " transform="matrix(0.472813,0,0,0.470588,-100.683208,-65.932032)"/>
<path style="fill-rule:nonzero;fill:rgb(11.372549%,54.117647%,11.372549%);fill-opacity:1;stroke-width:0.246329;stroke-linecap:butt;stroke-linejoin:miter;stroke:rgb(0%,0%,0%);stroke-opacity:1;stroke-miterlimit:4;" d="M 536.209515 182.954202 C 536.209515 185.900979 526.08891 188.299905 513.605453 188.299905 C 501.130257 188.299905 491.009652 185.900979 491.009652 182.954202 C 491.009652 179.999124 501.130257 177.600198 513.605453 177.600198 C 525.923675 177.600198 535.978187 179.941018 536.201254 182.854592 L 536.085589 183.136819 Z M 536.209515 182.954202 " transform="matrix(0.472813,0,0,0.470588,-100.683208,-65.932032)"/>
<path style="fill-rule:nonzero;fill:url(#linear27);stroke-width:0.25;stroke-linecap:butt;stroke-linejoin:miter;stroke:rgb(0%,0%,0%);stroke-opacity:1;stroke-miterlimit:4;" d="M 330.236605 195.969827 L 330.344007 213.501077 C 330.344007 213.501077 338.43223 218.689065 353.063734 218.689065 C 369.661527 218.689065 376.303949 212.15635 376.303949 212.15635 L 376.097406 195.654397 Z M 330.236605 195.969827 " transform="matrix(0.472813,0,0,0.470588,-100.683208,-65.932032)"/>
<path style="fill-rule:nonzero;fill:rgb(11.372549%,54.117647%,11.372549%);fill-opacity:1;stroke-width:0.25;stroke-linecap:butt;stroke-linejoin:miter;stroke:rgb(0%,0%,0%);stroke-opacity:1;stroke-miterlimit:4;" d="M 376.113929 195.604592 C 376.113929 198.601174 365.844613 201.033303 353.179398 201.033303 C 340.514183 201.033303 330.244867 198.601174 330.244867 195.604592 C 330.244867 192.60801 340.514183 190.175881 353.179398 190.175881 C 365.679379 190.175881 375.882601 192.549905 376.113929 195.504983 L 375.990004 195.79551 Z M 376.113929 195.604592 " transform="matrix(0.472813,0,0,0.470588,-100.683208,-65.932032)"/>
<path style="fill-rule:nonzero;fill:url(#linear28);stroke-width:0.245247;stroke-linecap:butt;stroke-linejoin:miter;stroke:rgb(0%,0%,0%);stroke-opacity:1;stroke-miterlimit:4;" d="M 387.65555 180.546975 L 387.754691 197.746194 C 387.754691 197.746194 395.694203 202.834573 410.044808 202.834573 C 426.328656 202.834573 432.83889 196.418069 432.83889 196.418069 L 432.632347 180.239846 Z M 387.65555 180.546975 " transform="matrix(0.472813,0,0,0.470588,-100.683208,-65.932032)"/>
<path style="fill-rule:nonzero;fill:rgb(11.372549%,54.117647%,11.372549%);fill-opacity:1;stroke-width:0.245247;stroke-linecap:butt;stroke-linejoin:miter;stroke:rgb(0%,0%,0%);stroke-opacity:1;stroke-miterlimit:4;" d="M 432.657132 180.190042 C 432.657132 183.128518 422.586097 185.510842 410.160472 185.510842 C 397.734847 185.510842 387.65555 183.128518 387.65555 180.190042 C 387.65555 177.243264 397.734847 174.86094 410.160472 174.86094 C 422.420863 174.86094 432.425804 177.185159 432.648871 180.090432 L 432.533207 180.38096 Z M 432.657132 180.190042 " transform="matrix(0.472813,0,0,0.470588,-100.683208,-65.932032)"/>
<path style="fill-rule:nonzero;fill:url(#linear29);stroke-width:0.245247;stroke-linecap:butt;stroke-linejoin:miter;stroke:rgb(0%,0%,0%);stroke-opacity:1;stroke-miterlimit:4;" d="M 444.520961 164.144631 L 444.620101 181.34385 C 444.620101 181.34385 452.559613 186.432229 466.910218 186.432229 C 483.194066 186.432229 489.7043 180.015725 489.7043 180.015725 L 489.506019 163.837503 Z M 444.520961 164.144631 " transform="matrix(0.472813,0,0,0.470588,-100.683208,-65.932032)"/>
<path style="fill-rule:nonzero;fill:rgb(11.372549%,54.117647%,11.372549%);fill-opacity:1;stroke-width:0.245247;stroke-linecap:butt;stroke-linejoin:miter;stroke:rgb(0%,0%,0%);stroke-opacity:1;stroke-miterlimit:4;" d="M 489.522543 163.779397 C 489.522543 166.726174 479.451507 169.108499 467.025882 169.108499 C 454.600257 169.108499 444.529222 166.726174 444.529222 163.779397 C 444.529222 160.840921 454.600257 158.458596 467.025882 158.458596 C 479.286273 158.458596 489.291214 160.782815 489.522543 163.688089 L 489.406879 163.970315 Z M 489.522543 163.779397 " transform="matrix(0.472813,0,0,0.470588,-100.683208,-65.932032)"/>
<path style="fill-rule:nonzero;fill:url(#linear30);stroke-width:0.25;stroke-linecap:butt;stroke-linejoin:miter;stroke:rgb(0%,0%,0%);stroke-opacity:1;stroke-miterlimit:4;" d="M 131.001635 538.300487 L 131.109038 555.831737 C 131.109038 555.831737 139.19726 561.019726 153.828764 561.019726 C 170.426557 561.019726 177.060717 554.47871 177.060717 554.47871 L 176.854174 537.985058 Z M 131.001635 538.300487 " transform="matrix(0.472813,0,0,0.470588,-32.986183,-143.630376)"/>
<path style="fill-rule:nonzero;fill:rgb(98.039216%,66.27451%,0%);fill-opacity:1;stroke-width:0.25;stroke-linecap:butt;stroke-linejoin:miter;stroke:rgb(0%,0%,0%);stroke-opacity:1;stroke-miterlimit:4;" d="M 176.87896 537.935253 C 176.87896 540.931835 166.609643 543.363964 153.944428 543.363964 C 141.279213 543.363964 131.009897 540.931835 131.009897 537.935253 C 131.009897 534.938671 141.279213 532.506542 153.944428 532.506542 C 166.444409 532.506542 176.647631 534.872265 176.870698 537.835644 L 176.755034 538.126171 Z M 176.87896 537.935253 " transform="matrix(0.472813,0,0,0.470588,-32.986183,-143.630376)"/>
<path style="fill-rule:nonzero;fill:url(#linear31);stroke-width:0.255904;stroke-linecap:butt;stroke-linejoin:miter;stroke:rgb(0%,0%,0%);stroke-opacity:1;stroke-miterlimit:4;" d="M 178.027338 559.218456 L 178.134741 577.164745 C 178.134741 577.164745 186.421245 582.468945 201.391479 582.468945 C 218.385835 582.468945 225.176967 575.778515 225.176967 575.778515 L 224.970424 558.894726 Z M 178.027338 559.218456 " transform="matrix(0.472813,0,0,0.470588,-32.986183,-143.630376)"/>
<path style="fill-rule:nonzero;fill:rgb(98.039216%,66.27451%,0%);fill-opacity:1;stroke-width:0.255904;stroke-linecap:butt;stroke-linejoin:miter;stroke:rgb(0%,0%,0%);stroke-opacity:1;stroke-miterlimit:4;" d="M 224.986948 558.844921 C 224.986948 561.907909 214.478042 564.398144 201.515405 564.398144 C 188.544506 564.398144 178.0356 561.907909 178.0356 558.844921 C 178.0356 555.773632 188.544506 553.283398 201.515405 553.283398 C 214.312807 553.283398 224.747358 555.715527 224.986948 558.737011 L 224.863022 559.04414 Z M 224.986948 558.844921 " transform="matrix(0.472813,0,0,0.470588,-32.986183,-143.630376)"/>
</g>
</svg>
